<svg width="95" height="95" viewBox="0 0 95 95" fill="none" xmlns="http://www.w3.org/2000/svg">
<circle cx="47.5" cy="47.5" r="47.5" fill="#6E64C3" fill-opacity="0.2"/>
<path d="M47.5 25C35.6436 25 26 34.6452 26 46.5H34.2692C34.2692 43.8832 35.0452 41.3252 36.499 39.1494C37.9528 36.9736 40.0192 35.2778 42.4368 34.2764C44.8544 33.275 47.5147 33.0129 50.0812 33.5235C52.6477 34.034 55.0052 35.2941 56.8556 37.1444C58.7059 38.9948 59.966 41.3523 60.4765 43.9188C60.9871 46.4853 60.725 49.1456 59.7236 51.5632C58.7222 53.9808 57.0264 56.0472 54.8506 57.501C52.6748 58.9548 50.1168 59.7308 47.5 59.7308V68C59.3564 68 69 58.3548 69 46.5C69 34.6452 59.3564 25 47.5 25ZM47.5 59.7308V49.8077H37.5769V59.7308H47.5ZM37.5769 59.7308H30.9615V66.3462H37.5769V59.7308ZM30.9615 59.7308V54.7692H26V59.7308H30.9615Z" fill="#6E64C3"/>
</svg>
