<svg width="84" height="84" viewBox="0 0 84 84" fill="none" xmlns="http://www.w3.org/2000/svg">
<path d="M58.5953 42.0443C58.5953 38.7328 57.6133 35.4957 55.7735 32.7423C53.9338 29.9888 51.3188 27.8428 48.2594 26.5755C45.1999 25.3083 41.8334 24.9767 38.5855 25.6228C35.3376 26.2688 32.3543 27.8634 30.0127 30.205C27.6711 32.5466 26.0764 35.53 25.4304 38.7779C24.7844 42.0258 25.1159 45.3923 26.3832 48.4517C27.6504 51.5112 29.7965 54.1261 32.5499 55.9659C35.3033 57.8057 38.5405 58.7876 41.852 58.7876C46.2899 58.7788 50.5435 57.0119 53.6815 53.8739C56.8196 50.7358 58.5864 46.4822 58.5953 42.0443V42.0443ZM42.5217 57.4314V45.393H47.2098C47.3875 45.393 47.5578 45.3224 47.6834 45.1968C47.809 45.0712 47.8796 44.9009 47.8796 44.7233C47.8796 44.5456 47.809 44.3753 47.6834 44.2497C47.5578 44.1241 47.3875 44.0535 47.2098 44.0535H42.5217V39.3654C42.5261 38.4786 42.8803 37.6295 43.5074 37.0024C44.1344 36.3754 44.9836 36.0212 45.8704 36.0167H48.5493C48.7269 36.0167 48.8973 35.9462 49.0229 35.8206C49.1485 35.695 49.219 35.5246 49.219 35.347C49.219 35.1694 49.1485 34.999 49.0229 34.8734C48.8973 34.7478 48.7269 34.6773 48.5493 34.6773H45.8704C44.6284 34.6817 43.4385 35.177 42.5602 36.0553C41.682 36.9335 41.1867 38.1234 41.1823 39.3654V44.0535H36.4941C36.3165 44.0535 36.1462 44.1241 36.0206 44.2497C35.895 44.3753 35.8244 44.5456 35.8244 44.7233C35.8244 44.9009 35.895 45.0712 36.0206 45.1968C36.1462 45.3224 36.3165 45.393 36.4941 45.393H41.1823V57.4314C37.1587 57.2563 33.3638 55.5124 30.6104 52.5733C27.857 49.6342 26.3642 45.7336 26.4518 41.7072C26.5394 37.6808 28.2003 33.8488 31.0789 31.0322C33.9575 28.2156 37.8246 26.6383 41.852 26.6383C45.8793 26.6383 49.7465 28.2156 52.6251 31.0322C55.5036 33.8488 57.1646 37.6808 57.2522 41.7072C57.3398 45.7336 55.847 49.6342 53.0936 52.5733C50.3402 55.5124 46.5453 57.2563 42.5217 57.4314V57.4314Z" fill="white"/>
<circle cx="42.2241" cy="41.6722" r="41.1722" stroke="white"/>
</svg>
