<svg width="95" height="95" viewBox="0 0 95 95" fill="none" xmlns="http://www.w3.org/2000/svg">
<circle cx="47.5" cy="47.5" r="47.5" fill="#0029FF" fill-opacity="0.2"/>
<path d="M51.2199 26.0007L64.6222 32.213C66.2142 33.0811 65.6739 34.5304 63.4769 35.8343L53.1728 41.9036C52.9427 43.0312 53.7185 44.2927 54.8873 44.5021C58.5092 42.3984 62.0785 40.2021 65.7338 38.1591C69.8398 36.8523 68.907 40.711 68.913 42.9488L68.0936 53.9843C67.8622 55.6368 66.3213 55.7171 64.3623 54.5386L55.9991 49.5503C55.0225 49.9242 54.0655 51.0121 54.0978 52.0939L64.1335 58.1082C64.9588 58.8096 65.0507 60.3569 63.9961 60.899C60.092 63.5924 56.1847 66.2904 52.2452 68.9275C51.0174 69.2884 49.591 68.2496 49.6905 66.9589L49.4849 54.4089C48.6609 53.4538 47.0071 53.4967 46.1061 54.412L46.2394 66.7873C46.0643 69.2821 43.335 69.0077 41.5599 67.6417L31.3654 60.7612C29.4383 59.074 31.0641 58.0423 32.408 57.275L41.1111 52.5016C41.3119 51.3506 40.7202 49.9088 39.4676 49.6506L29.4702 55.2698C28.6425 55.6094 27.2408 55.5858 27.2717 54.3356C26.7428 49.4007 26.2595 43.9199 26 39.4525C26.4494 38.2896 28.0828 37.8239 29.1308 38.4824L40.1819 44.5866C40.9102 44.009 42.751 42.5557 41.1808 41.7772L30.6713 35.949C28.5491 34.4826 30.2253 32.5558 31.8055 31.7582L43.5386 26.1724C45.7267 25.7711 45.8945 26.9203 46.0122 28.2585L45.9573 38.7469C46.8394 39.5223 48.3333 39.5306 49.1708 38.698L49.195 27.6734C49.4705 26.8202 50.2572 25.9749 51.2199 26.0006V26.0007ZM53.0929 31.7738C53.0568 33.3561 53.0205 34.9384 52.9843 36.5208L57.5776 33.8133C56.0847 33.0421 54.592 32.2703 53.0992 31.499L53.0929 31.7738ZM37.2344 34.0512L42.0086 36.6623L41.8448 31.7405L37.2344 34.0512ZM44.6387 46.5716C44.2942 46.8585 44.7828 47.1723 45.013 47.314C45.8001 48.0083 46.0759 49.0884 46.0855 50.0961C46.724 49.1765 48.2097 48.8325 49.0512 49.6677C49.3575 49.897 49.4573 49.3358 49.4268 49.097C49.5172 48.1071 50.2078 47.3076 50.9962 46.757C50.1421 46.26 49.3889 45.4754 49.3022 44.4538C49.018 44.1282 48.6823 44.4532 48.3326 44.665C47.427 44.9279 46.4607 44.6898 45.6367 44.2857C46.1399 45.4333 45.4342 46.2874 44.6387 46.5716ZM59.7007 47.3333L64.0619 49.681L64.3408 44.5798L59.7007 47.3333ZM31.1387 49.8616L35.7434 47.5451L30.9302 44.8946L31.1387 49.8616ZM54.3767 62.0889L58.6206 59.4333L54.294 56.532L54.3767 62.0889ZM36.9789 59.3801L41.3108 62.165L41.2139 56.7636L36.9789 59.3801Z" fill="#0029FF"/>
</svg>
