<svg width="84" height="84" viewBox="0 0 84 84" fill="none" xmlns="http://www.w3.org/2000/svg">
<path d="M41.3002 34.3703C39.7824 34.3703 38.2987 34.8204 37.0367 35.6636C35.7747 36.5069 34.7911 37.7054 34.2103 39.1076C33.6295 40.5099 33.4775 42.0528 33.7736 43.5415C34.0697 45.0301 34.8006 46.3975 35.8738 47.4707C36.947 48.5439 38.3144 49.2748 39.803 49.5709C41.2917 49.867 42.8346 49.715 44.2369 49.1342C45.6391 48.5534 46.8376 47.5698 47.6809 46.3078C48.5241 45.0458 48.9742 43.5621 48.9742 42.0443C48.9742 40.0091 48.1657 38.0571 46.7265 36.618C45.2874 35.1788 43.3354 34.3703 41.3002 34.3703ZM41.3002 48.3231C40.0583 48.3231 38.8444 47.9548 37.8119 47.2649C36.7794 46.575 35.9746 45.5944 35.4994 44.4471C35.0241 43.2998 34.8998 42.0374 35.1421 40.8194C35.3843 39.6015 35.9823 38.4827 36.8604 37.6046C37.7385 36.7265 38.8573 36.1285 40.0752 35.8862C41.2932 35.644 42.5556 35.7683 43.7029 36.2435C44.8502 36.7188 45.8308 37.5235 46.5207 38.5561C47.2107 39.5886 47.5789 40.8025 47.5789 42.0443C47.5789 43.7096 46.9174 45.3066 45.7399 46.4841C44.5624 47.6616 42.9654 48.3231 41.3002 48.3231V48.3231ZM48.9742 25.301H33.6261C31.2208 25.301 28.914 26.2565 27.2132 27.9574C25.5124 29.6582 24.5569 31.965 24.5569 34.3703V49.7184C24.5569 50.9094 24.7914 52.0887 25.2472 53.189C25.703 54.2894 26.371 55.2892 27.2132 56.1313C28.914 57.8321 31.2208 58.7876 33.6261 58.7876H48.9742C50.1652 58.7876 51.3445 58.5531 52.4449 58.0973C53.5452 57.6415 54.545 56.9735 55.3871 56.1313C56.2293 55.2892 56.8973 54.2894 57.3531 53.189C57.8089 52.0887 58.0435 50.9094 58.0435 49.7184V34.3703C58.0435 33.1793 57.8089 32 57.3531 30.8997C56.8973 29.7993 56.2293 28.7995 55.3871 27.9574C54.545 27.1152 53.5452 26.4472 52.4449 25.9914C51.3445 25.5356 50.1652 25.301 48.9742 25.301V25.301ZM56.6482 49.7184C56.6482 51.7536 55.8397 53.7055 54.4005 55.1447C52.9614 56.5839 51.0095 57.3924 48.9742 57.3924H33.6261C31.5909 57.3924 29.639 56.5839 28.1998 55.1447C26.7606 53.7055 25.9521 51.7536 25.9521 49.7184V34.3703C25.9521 32.335 26.7606 30.3831 28.1998 28.944C29.639 27.5048 31.5909 26.6963 33.6261 26.6963H48.9742C51.0095 26.6963 52.9614 27.5048 54.4005 28.944C55.8397 30.3831 56.6482 32.335 56.6482 34.3703V49.7184ZM51.7647 32.975C51.7647 33.251 51.6829 33.5208 51.5296 33.7502C51.3763 33.9797 51.1584 34.1585 50.9034 34.2641C50.6485 34.3697 50.3679 34.3973 50.0973 34.3435C49.8266 34.2897 49.578 34.1568 49.3828 33.9617C49.1877 33.7665 49.0548 33.5179 49.001 33.2472C48.9472 32.9766 48.9748 32.696 49.0804 32.4411C49.186 32.1861 49.3648 31.9682 49.5943 31.8149C49.8237 31.6616 50.0935 31.5798 50.3695 31.5798C50.7395 31.5798 51.0944 31.7268 51.3561 31.9884C51.6177 32.2501 51.7647 32.605 51.7647 32.975Z" fill="white"/>
<circle cx="41.6722" cy="41.6722" r="41.1722" stroke="white"/>
</svg>
