<svg width="514" height="448" viewBox="0 0 514 448" fill="none" xmlns="http://www.w3.org/2000/svg">
<path d="M44.9129 372.3C48.6462 372.967 51.8129 374.933 54.4129 378.2C57.0129 381.467 58.3129 385.167 58.3129 389.3C58.3129 392.833 57.3796 396.033 55.5129 398.9C53.7129 401.7 51.0796 403.933 47.6129 405.6C44.1462 407.2 40.1129 408 35.5129 408H7.71289V338.5H34.2129C38.9462 338.5 43.0129 339.3 46.4129 340.9C49.8129 342.5 52.3796 344.667 54.1129 347.4C55.8462 350.067 56.7129 353.067 56.7129 356.4C56.7129 360.4 55.6462 363.733 53.5129 366.4C51.3796 369.067 48.5129 371.033 44.9129 372.3ZM19.1129 367.7H33.2129C36.9462 367.7 39.8462 366.867 41.9129 365.2C44.0462 363.467 45.1129 361 45.1129 357.8C45.1129 354.667 44.0462 352.233 41.9129 350.5C39.8462 348.7 36.9462 347.8 33.2129 347.8H19.1129V367.7ZM34.5129 398.7C38.3796 398.7 41.4129 397.767 43.6129 395.9C45.8129 394.033 46.9129 391.433 46.9129 388.1C46.9129 384.7 45.7462 382 43.4129 380C41.0796 378 37.9796 377 34.1129 377H19.1129V398.7H34.5129ZM83.2012 394.3L71.1012 421.9H63.7012L70.8012 394.3H83.2012ZM89.3621 373.1C89.3621 366.3 90.9288 360.2 94.0621 354.8C97.2621 349.4 101.562 345.2 106.962 342.2C112.429 339.133 118.395 337.6 124.862 337.6C132.262 337.6 138.829 339.433 144.562 343.1C150.362 346.7 154.562 351.833 157.162 358.5H143.462C141.662 354.833 139.162 352.1 135.962 350.3C132.762 348.5 129.062 347.6 124.862 347.6C120.262 347.6 116.162 348.633 112.562 350.7C108.962 352.767 106.129 355.733 104.062 359.6C102.062 363.467 101.062 367.967 101.062 373.1C101.062 378.233 102.062 382.733 104.062 386.6C106.129 390.467 108.962 393.467 112.562 395.6C116.162 397.667 120.262 398.7 124.862 398.7C129.062 398.7 132.762 397.8 135.962 396C139.162 394.2 141.662 391.467 143.462 387.8H157.162C154.562 394.467 150.362 399.6 144.562 403.2C138.829 406.8 132.262 408.6 124.862 408.6C118.329 408.6 112.362 407.1 106.962 404.1C101.562 401.033 97.2621 396.8 94.0621 391.4C90.9288 386 89.3621 379.9 89.3621 373.1ZM181.906 360.9C183.573 358.1 185.773 355.933 188.506 354.4C191.306 352.8 194.606 352 198.406 352V363.8H195.506C191.039 363.8 187.639 364.933 185.306 367.2C183.039 369.467 181.906 373.4 181.906 379V408H170.506V352.9H181.906V360.9ZM259.385 379.1C259.385 381.167 259.251 383.033 258.985 384.7H216.885C217.218 389.1 218.851 392.633 221.785 395.3C224.718 397.967 228.318 399.3 232.585 399.3C238.718 399.3 243.051 396.733 245.585 391.6H257.885C256.218 396.667 253.185 400.833 248.785 404.1C244.451 407.3 239.051 408.9 232.585 408.9C227.318 408.9 222.585 407.733 218.385 405.4C214.251 403 210.985 399.667 208.585 395.4C206.251 391.067 205.085 386.067 205.085 380.4C205.085 374.733 206.218 369.767 208.485 365.5C210.818 361.167 214.051 357.833 218.185 355.5C222.385 353.167 227.185 352 232.585 352C237.785 352 242.418 353.133 246.485 355.4C250.551 357.667 253.718 360.867 255.985 365C258.251 369.067 259.385 373.767 259.385 379.1ZM247.485 375.5C247.418 371.3 245.918 367.933 242.985 365.4C240.051 362.867 236.418 361.6 232.085 361.6C228.151 361.6 224.785 362.867 221.985 365.4C219.185 367.867 217.518 371.233 216.985 375.5H247.485ZM266.804 380.2C266.804 374.667 267.937 369.767 270.204 365.5C272.537 361.233 275.67 357.933 279.604 355.6C283.604 353.2 288.004 352 292.804 352C297.137 352 300.904 352.867 304.104 354.6C307.37 356.267 309.97 358.367 311.904 360.9V352.9H323.404V408H311.904V399.8C309.97 402.4 307.337 404.567 304.004 406.3C300.67 408.033 296.87 408.9 292.604 408.9C287.87 408.9 283.537 407.7 279.604 405.3C275.67 402.833 272.537 399.433 270.204 395.1C267.937 390.7 266.804 385.733 266.804 380.2ZM311.904 380.4C311.904 376.6 311.104 373.3 309.504 370.5C307.97 367.7 305.937 365.567 303.404 364.1C300.87 362.633 298.137 361.9 295.204 361.9C292.27 361.9 289.537 362.633 287.004 364.1C284.47 365.5 282.404 367.6 280.804 370.4C279.27 373.133 278.504 376.4 278.504 380.2C278.504 384 279.27 387.333 280.804 390.2C282.404 393.067 284.47 395.267 287.004 396.8C289.604 398.267 292.337 399 295.204 399C298.137 399 300.87 398.267 303.404 396.8C305.937 395.333 307.97 393.2 309.504 390.4C311.104 387.533 311.904 384.2 311.904 380.4ZM351.677 362.2V392.7C351.677 394.767 352.144 396.267 353.077 397.2C354.077 398.067 355.744 398.5 358.077 398.5H365.077V408H356.077C350.944 408 347.01 406.8 344.277 404.4C341.544 402 340.177 398.1 340.177 392.7V362.2H333.677V352.9H340.177V339.2H351.677V352.9H365.077V362.2H351.677ZM381.384 345.6C379.317 345.6 377.584 344.9 376.184 343.5C374.784 342.1 374.084 340.367 374.084 338.3C374.084 336.233 374.784 334.5 376.184 333.1C377.584 331.7 379.317 331 381.384 331C383.384 331 385.084 331.7 386.484 333.1C387.884 334.5 388.584 336.233 388.584 338.3C388.584 340.367 387.884 342.1 386.484 343.5C385.084 344.9 383.384 345.6 381.384 345.6ZM386.984 352.9V408H375.584V352.9H386.984ZM423.251 397.8L438.851 352.9H450.951L429.951 408H416.351L395.451 352.9H407.651L423.251 397.8ZM510.068 379.1C510.068 381.167 509.935 383.033 509.668 384.7H467.568C467.902 389.1 469.535 392.633 472.468 395.3C475.402 397.967 479.002 399.3 483.268 399.3C489.402 399.3 493.735 396.733 496.268 391.6H508.568C506.902 396.667 503.868 400.833 499.468 404.1C495.135 407.3 489.735 408.9 483.268 408.9C478.002 408.9 473.268 407.733 469.068 405.4C464.935 403 461.668 399.667 459.268 395.4C456.935 391.067 455.768 386.067 455.768 380.4C455.768 374.733 456.902 369.767 459.168 365.5C461.502 361.167 464.735 357.833 468.868 355.5C473.068 353.167 477.868 352 483.268 352C488.468 352 493.102 353.133 497.168 355.4C501.235 357.667 504.402 360.867 506.668 365C508.935 369.067 510.068 373.767 510.068 379.1ZM498.168 375.5C498.102 371.3 496.602 367.933 493.668 365.4C490.735 362.867 487.102 361.6 482.768 361.6C478.835 361.6 475.468 362.867 472.668 365.4C469.868 367.867 468.202 371.233 467.668 375.5H498.168Z" fill="#474747" fill-opacity="0.53"/>
<path d="M327.336 104.545V250H305.39V104.545H327.336ZM352.123 123.438V104.545H464.694V123.438H419.311V250H397.436V123.438H352.123Z" fill="#DD4040"/>
<g clip-path="url(#clip0_7_161)">
<path d="M164 0C94.9644 0 39 55.9644 39 125C39 194.036 94.9644 250 164 250C233.036 250 289 194.036 289 125C289 55.9644 233.036 0 164 0ZM97.5737 62.8404H230.418V187.16H97.5737V62.8404ZM113.951 79.0827V170.925H214.049V79.0827H113.951ZM124.866 90.7975H202.865V131.522H124.866V90.7975ZM124.866 138.583H146.958V160.675H124.866V138.583ZM152.815 138.583H174.915V160.675H152.815V138.583ZM180.765 138.583H202.865V160.675H180.765V138.583Z" fill="#6E64C3"/>
</g>
<defs>
<clipPath id="clip0_7_161">
<rect width="250" height="250" fill="white" transform="translate(39)"/>
</clipPath>
</defs>
</svg>
