<svg width="84" height="84" viewBox="0 0 84 84" fill="none" xmlns="http://www.w3.org/2000/svg">
<path fill-rule="evenodd" clip-rule="evenodd" d="M25.2125 32.3704V51.7182C25.2125 53.0011 25.7221 54.2314 26.6292 55.1385C27.5363 56.0456 28.7666 56.5552 30.0494 56.5552H54.2342C55.517 56.5552 56.7473 56.0456 57.6544 55.1385C58.5616 54.2314 59.0712 53.0011 59.0712 51.7182V32.3704C59.0712 31.0876 58.5616 29.8573 57.6544 28.9502C56.7473 28.0431 55.517 27.5334 54.2342 27.5334H30.0494C28.7666 27.5334 27.5363 28.0431 26.6292 28.9502C25.7221 29.8573 25.2125 31.0876 25.2125 32.3704V32.3704Z" stroke="white" stroke-width="2" stroke-linecap="round" stroke-linejoin="round"/>
<path d="M30.0494 34.7888L42.1418 42.0443L54.2342 34.7888" stroke="white" stroke-width="2" stroke-linecap="round" stroke-linejoin="round"/>
<circle cx="42.3278" cy="41.6722" r="41.1722" stroke="white"/>
</svg>
