<svg width="84" height="84" viewBox="0 0 84 84" fill="none" xmlns="http://www.w3.org/2000/svg">
<path d="M58.0245 49.2576C57.4014 47.5659 53.6265 47.3294 51.8674 43.4549C51.7574 43.1639 51.7757 42.9638 52.0689 42.7819C53.425 41.8905 54.3778 41.3994 54.9276 40.3626C55.3307 39.6168 55.3857 38.7436 55.0742 37.9433C54.6527 36.8337 53.5899 36.1242 52.2888 36.1242C51.8307 36.1242 51.4642 36.2152 51.281 36.2516C51.2993 35.4876 51.281 34.6872 51.2077 33.8868C50.9694 31.1037 49.9799 29.6303 48.9537 28.4661C48.349 27.7931 45.9484 25.301 41.4039 25.301C36.8593 25.301 34.4588 27.7931 33.8541 28.4661C32.8279 29.6303 31.8384 31.1037 31.6001 33.8868C31.5452 34.6872 31.5268 35.4876 31.5268 36.2516C31.3253 36.197 30.9771 36.1242 30.519 36.1242C29.2362 36.1242 28.1551 36.8155 27.7336 37.9433C27.4221 38.7254 27.477 39.6168 27.8802 40.3626C28.4483 41.4176 29.3828 41.8905 30.7389 42.7819C31.0321 42.982 31.0504 43.1639 30.9404 43.4549C29.1629 47.3294 25.4063 47.5659 24.7833 49.2576C24.5084 49.9852 24.6917 50.8038 25.3697 51.495C26.4142 52.5682 28.3566 52.8957 28.7415 53.1503C29.053 53.405 29.0163 54.169 29.8959 54.7874C30.5923 55.2604 31.3619 55.2968 32.1865 55.315C34.5871 55.4059 35.1185 55.8061 36.0347 56.37C37.1892 57.0794 38.7651 58.0435 41.4039 58.0435C44.0427 58.0435 45.6186 57.0794 46.7731 56.37C47.6893 55.8061 48.2207 55.4059 50.6213 55.315C51.4459 55.2786 52.2155 55.2604 52.9119 54.7874C53.8098 54.169 53.7731 53.405 54.0663 53.1503C54.4511 52.8957 56.3936 52.5682 57.4381 51.495C58.1161 50.8038 58.2994 49.9852 58.0245 49.2576ZM56.137 50.2217C55.459 50.9311 53.8281 51.1312 52.9668 51.7133C52.0873 52.4773 52.2338 53.0594 51.8857 53.2958C51.6475 53.4596 51.226 53.4777 50.5663 53.5141C48.0008 53.6051 47.0663 54.078 45.9484 54.7693C43.328 56.37 41.862 56.2245 41.4039 56.2245C40.9458 56.2245 39.4798 56.37 36.8777 54.7511C35.7599 54.0598 34.8436 53.6051 32.2598 53.4959C31.6001 53.4777 31.1787 53.4414 30.9404 53.2776C30.5923 53.0412 30.7205 52.4591 29.8593 51.6951C28.9797 51.113 27.3671 50.9129 26.6891 50.2035C26.5791 50.0944 26.4875 49.9488 26.4692 49.9306C26.5975 49.7487 27.2205 49.3849 27.6786 49.1303C29.108 48.2935 31.3069 47.0566 32.6446 44.1279C33.1211 42.8546 32.6996 41.836 31.7651 41.2357C29.6577 39.9078 29.6943 39.8532 29.4928 39.4894C29.4204 39.35 29.3781 39.197 29.3686 39.0404C29.3592 38.8838 29.3827 38.727 29.4378 38.5799C29.6577 37.9978 30.2624 37.9433 30.5006 37.9433C30.8488 37.9433 30.8305 37.9614 33.3776 38.6163C33.341 36.0697 33.3043 35.2511 33.4143 34.0505C33.6159 31.6676 34.4588 30.5398 35.2101 29.6849C35.7232 29.1392 37.7206 27.0837 41.4039 27.1201C45.0872 27.0837 47.0846 29.1392 47.5794 29.6849C48.3307 30.5398 49.1736 31.6676 49.3752 34.0505C49.4851 35.2511 49.4485 36.0697 49.4118 38.6163C51.9773 37.9614 51.9407 37.9433 52.2888 37.9433C52.5454 37.9433 53.1318 37.9978 53.3517 38.5799C53.4799 38.8892 53.4616 39.2166 53.2967 39.4894C53.0951 39.8532 53.1318 39.8896 51.0427 41.2539C50.1082 41.8542 49.6867 42.8728 50.1631 44.1461C51.5009 47.0748 53.6998 48.3117 55.1292 49.1485C55.5873 49.4213 56.2103 49.7669 56.3386 49.9488C56.3386 49.967 56.2287 50.1125 56.137 50.2217V50.2217Z" fill="white"/>
<circle cx="41.7759" cy="41.6722" r="41.1722" stroke="white"/>
</svg>
