<svg width="95" height="95" viewBox="0 0 95 95" fill="none" xmlns="http://www.w3.org/2000/svg">
<circle cx="47.5" cy="47.5" r="47.5" fill="#00A542" fill-opacity="0.2"/>
<path fill-rule="evenodd" clip-rule="evenodd" d="M51.4597 35.125H44.1855C43.7032 35.125 43.2406 35.3423 42.8996 35.7291C42.5586 36.1159 42.367 36.6405 42.367 37.1875V57.8125C42.367 58.3595 42.5586 58.8841 42.8996 59.2709C43.2406 59.6577 43.7032 59.875 44.1855 59.875H51.4597C51.942 59.875 52.4046 59.6577 52.7456 59.2709C53.0866 58.8841 53.2782 58.3595 53.2782 57.8125V37.1875C53.2782 36.6405 53.0866 36.1159 52.7456 35.7291C52.4046 35.3423 51.942 35.125 51.4597 35.125ZM44.1855 31C42.7386 31 41.3509 31.6519 40.3278 32.8123C39.3046 33.9727 38.7299 35.5465 38.7299 37.1875V57.8125C38.7299 59.4535 39.3046 61.0273 40.3278 62.1877C41.3509 63.3481 42.7386 64 44.1855 64H51.4597C52.9066 64 54.2943 63.3481 55.3174 62.1877C56.3406 61.0273 56.9153 59.4535 56.9153 57.8125V37.1875C56.9153 35.5465 56.3406 33.9727 55.3174 32.8123C54.2943 31.6519 52.9066 31 51.4597 31H44.1855Z" fill="#00A542"/>
<path d="M36.9113 38.1361L32.3522 37.274C31.5708 37.1263 30.7705 37.1734 30.0068 37.412C29.2432 37.6506 28.5344 38.0749 27.93 38.6555C27.3255 39.2361 26.8397 39.959 26.5064 40.774C26.1731 41.5889 26.0003 42.4765 26 43.3748V53.5162C25.9998 54.4149 26.1722 55.3029 26.5053 56.1184C26.8383 56.9339 27.324 57.6573 27.9286 58.2383C28.5331 58.8193 29.242 59.244 30.006 59.4828C30.7699 59.7216 31.5705 59.7689 32.3522 59.6212L36.9113 58.757V54.5763L31.7539 55.5498C31.4936 55.5989 31.2271 55.5831 30.9727 55.5037C30.7184 55.4242 30.4823 55.2829 30.2809 55.0896C30.0795 54.8964 29.9176 54.6557 29.8064 54.3843C29.6953 54.113 29.6375 53.8174 29.6371 53.5182V43.3769C29.637 43.0773 29.6944 42.7813 29.8053 42.5095C29.9162 42.2376 30.0781 41.9964 30.2795 41.8027C30.481 41.609 30.7172 41.4673 30.9719 41.3876C31.2265 41.3079 31.4933 41.2921 31.7539 41.3412L36.9113 42.3168V38.134V38.1361ZM58.7339 38.1361L63.293 37.274C64.0743 37.1263 64.8746 37.1734 65.6383 37.412C66.402 37.6506 67.1107 38.0749 67.7152 38.6555C68.3197 39.2361 68.8055 39.959 69.1387 40.774C69.472 41.5889 69.6448 42.4765 69.6452 43.3748V53.5162C69.6454 54.4149 69.4729 55.3029 69.1399 56.1184C68.8068 56.9339 68.3211 57.6573 67.7166 58.2383C67.112 58.8193 66.4031 59.244 65.6392 59.4828C64.8753 59.7216 64.0746 59.7689 63.293 59.6212L58.7339 58.757V54.5763L63.8913 55.5498C64.1515 55.5989 64.4181 55.5831 64.6724 55.5037C64.9268 55.4242 65.1629 55.2829 65.3642 55.0896C65.5656 54.8964 65.7275 54.6557 65.8387 54.3843C65.9499 54.113 66.0077 53.8174 66.0081 53.5182V43.3769C66.0082 43.0773 65.9508 42.7813 65.8399 42.5095C65.7289 42.2376 65.5671 41.9964 65.3656 41.8027C65.1642 41.609 64.9279 41.4673 64.6733 41.3876C64.4187 41.3079 64.1518 41.2921 63.8913 41.3412L58.7339 42.3168V38.134V38.1361Z" fill="#00A542"/>
</svg>
