<svg width="95" height="95" viewBox="0 0 95 95" fill="none" xmlns="http://www.w3.org/2000/svg">
<circle cx="47.5" cy="47.5" r="47.5" fill="#FF0000" fill-opacity="0.2"/>
<path d="M64.7 30H30.3C27.935 30 26.0215 31.9125 26.0215 34.25L26 59.75C26 62.0875 27.935 64 30.3 64H64.7C67.065 64 69 62.0875 69 59.75V34.25C69 31.9125 67.065 30 64.7 30ZM30.3 40.625H52.875V48.0625H30.3V40.625ZM30.3 52.3125H52.875V59.75H32.45C31.2675 59.75 30.3 58.7938 30.3 57.625V52.3125ZM62.55 59.75H57.175V40.625H64.7V57.625C64.7 58.7938 63.7325 59.75 62.55 59.75Z" fill="#FF0000"/>
</svg>
