<svg width="45" height="45" viewBox="0 0 45 45" fill="none" xmlns="http://www.w3.org/2000/svg">
<circle cx="22.5" cy="22.5" r="22.5" fill="#E37626"/>
<path d="M17.857 13.445C19 14.278 19.89 15.415 20.65 16.503L21.092 17.147L21.509 17.762C21.7176 18.0667 21.8068 18.4375 21.7595 18.8038C21.7123 19.17 21.532 19.5061 21.253 19.748L19.302 21.197C19.2077 21.2651 19.1414 21.365 19.1153 21.4783C19.0891 21.5916 19.105 21.7105 19.16 21.813C19.602 22.616 20.388 23.812 21.288 24.712C22.189 25.612 23.441 26.45 24.3 26.942C24.4077 27.0025 24.5345 27.0194 24.6542 26.9892C24.774 26.9591 24.8777 26.8842 24.944 26.78L26.214 24.847C26.4475 24.5368 26.7919 24.3291 27.1752 24.2672C27.5584 24.2053 27.9507 24.2941 28.27 24.515L28.933 24.974C30.172 25.834 31.503 26.811 32.521 28.114C32.6824 28.3218 32.7851 28.5691 32.8184 28.8302C32.8516 29.0912 32.8142 29.3564 32.71 29.598C31.873 31.551 29.755 33.214 27.552 33.133L27.252 33.116L27.019 33.096L26.761 33.066L26.48 33.028L26.175 32.978C26.1216 32.9684 26.0682 32.9584 26.015 32.948L25.679 32.876C25.6202 32.8631 25.5616 32.8498 25.503 32.836L25.137 32.742L24.752 32.632L24.35 32.502C22.504 31.876 20.161 30.646 17.757 28.242C15.354 25.839 14.124 23.496 13.498 21.65L13.368 21.248L13.258 20.863L13.164 20.497L13.086 20.151C13.0635 20.0426 13.0425 19.934 13.023 19.825L12.973 19.52L12.933 19.239L12.904 18.981L12.884 18.748L12.868 18.448C12.787 16.252 14.468 14.119 16.412 13.286C16.646 13.185 16.9022 13.1465 17.1555 13.1744C17.4088 13.2023 17.6506 13.2955 17.857 13.445V13.445ZM25.992 17.04L26.108 17.053C26.8359 17.1814 27.5045 17.5369 28.0179 18.0687C28.5313 18.6004 28.8632 19.281 28.966 20.013C29.0026 20.2662 28.9409 20.5238 28.7934 20.7328C28.6459 20.9418 28.4239 21.0864 28.1731 21.1367C27.9223 21.1871 27.6617 21.1394 27.445 21.0034C27.2283 20.8675 27.0719 20.6537 27.008 20.406L26.985 20.291C26.9448 20.0041 26.8223 19.735 26.6324 19.5162C26.4425 19.2974 26.1934 19.1382 25.915 19.058L25.76 19.023C25.5089 18.9785 25.2843 18.8397 25.1321 18.6351C24.9799 18.4305 24.9116 18.1754 24.9413 17.9221C24.9709 17.6689 25.0962 17.4365 25.2915 17.2725C25.4868 17.1085 25.7374 17.0253 25.992 17.04V17.04ZM26 14C27.5913 14 29.1174 14.6321 30.2426 15.7574C31.3678 16.8826 32 18.4087 32 20C31.9997 20.2549 31.9021 20.5 31.7271 20.6854C31.5522 20.8707 31.313 20.9822 31.0586 20.9972C30.8041 21.0121 30.5536 20.9293 30.3582 20.7657C30.1627 20.6021 30.0371 20.3701 30.007 20.117L30 20C30.0004 18.9844 29.6142 18.0068 28.92 17.2655C28.2257 16.5243 27.2754 16.075 26.262 16.009L26 16C25.7348 16 25.4804 15.8946 25.2929 15.7071C25.1053 15.5196 25 15.2652 25 15C25 14.7348 25.1053 14.4804 25.2929 14.2929C25.4804 14.1054 25.7348 14 26 14V14Z" fill="white"/>
</svg>
