<svg width="74" height="74" viewBox="0 0 74 74" fill="none" xmlns="http://www.w3.org/2000/svg">
<circle cx="37" cy="37" r="37" fill="#172F3E" fill-opacity="0.7"/>
<path d="M41.536 49V39.712H44.6467L45.112 36.1013H41.536V33.7973C41.536 32.752 41.8267 32.0387 43.3253 32.0387H45.2373V28.8093C44.3117 28.7111 43.3815 28.6635 42.4507 28.6667C39.6947 28.6667 37.808 30.3493 37.808 33.44V36.1013H34.6907V39.712H37.808V49H26.3333C25.9797 49 25.6406 48.8595 25.3905 48.6095C25.1405 48.3594 25 48.0203 25 47.6667V26.3333C25 25.9797 25.1405 25.6406 25.3905 25.3905C25.6406 25.1405 25.9797 25 26.3333 25H47.6667C48.0203 25 48.3594 25.1405 48.6095 25.3905C48.8595 25.6406 49 25.9797 49 26.3333V47.6667C49 48.0203 48.8595 48.3594 48.6095 48.6095C48.3594 48.8595 48.0203 49 47.6667 49H41.536V49Z" fill="#91AAB9"/>
</svg>
