<svg width="74" height="74" viewBox="0 0 74 74" fill="none" xmlns="http://www.w3.org/2000/svg">
<circle cx="37" cy="37" r="37" fill="#172F3E" fill-opacity="0.7"/>
<path d="M43.4059 32.0338C44.2012 32.0338 44.8459 31.3891 44.8459 30.5938C44.8459 29.7985 44.2012 29.1538 43.4059 29.1538C42.6107 29.1538 41.9659 29.7985 41.9659 30.5938C41.9659 31.3891 42.6107 32.0338 43.4059 32.0338Z" fill="#91AAB9"/>
<path d="M37 30.8379C35.7813 30.8379 34.5899 31.1993 33.5766 31.8764C32.5633 32.5535 31.7735 33.5158 31.3071 34.6418C30.8407 35.7678 30.7187 37.0067 30.9564 38.202C31.1942 39.3973 31.7811 40.4953 32.6428 41.3571C33.5046 42.2189 34.6026 42.8057 35.7979 43.0435C36.9932 43.2813 38.2322 43.1592 39.3581 42.6928C40.4841 42.2264 41.4464 41.4366 42.1235 40.4233C42.8006 39.41 43.162 38.2186 43.162 36.9999C43.162 35.3656 42.5128 33.7983 41.3572 32.6427C40.2016 31.4871 38.6343 30.8379 37 30.8379ZM37 40.9999C36.2089 40.9999 35.4355 40.7653 34.7777 40.3258C34.1199 39.8862 33.6072 39.2615 33.3045 38.5306C33.0017 37.7997 32.9225 36.9955 33.0769 36.2195C33.2312 35.4436 33.6122 34.7309 34.1716 34.1715C34.731 33.6121 35.4437 33.2311 36.2197 33.0767C36.9956 32.9224 37.7998 33.0016 38.5307 33.3044C39.2617 33.6071 39.8864 34.1198 40.3259 34.7776C40.7654 35.4354 41 36.2088 41 36.9999C41 38.0608 40.5786 39.0782 39.8284 39.8283C39.0783 40.5785 38.0609 40.9999 37 40.9999Z" fill="#91AAB9"/>
<path d="M37 27.162C40.204 27.162 40.584 27.174 41.849 27.232C42.6098 27.241 43.3635 27.3807 44.077 27.645C44.5947 27.8447 45.0648 28.1505 45.4571 28.5429C45.8495 28.9352 46.1553 29.4053 46.355 29.923C46.6193 30.6365 46.759 31.3902 46.768 32.151C46.826 33.416 46.838 33.796 46.838 37.001C46.838 40.206 46.826 40.584 46.768 41.849C46.759 42.6098 46.6193 43.3635 46.355 44.077C46.1553 44.5947 45.8495 45.0648 45.4571 45.4571C45.0648 45.8495 44.5947 46.1553 44.077 46.355C43.3635 46.6193 42.6098 46.759 41.849 46.768C40.584 46.826 40.204 46.838 37 46.838C33.796 46.838 33.416 46.826 32.151 46.768C31.3902 46.759 30.6365 46.6193 29.923 46.355C29.4053 46.1553 28.9352 45.8495 28.5429 45.4571C28.1505 45.0648 27.8447 44.5947 27.645 44.077C27.3807 43.3635 27.241 42.6098 27.232 41.849C27.174 40.584 27.162 40.204 27.162 37C27.162 33.796 27.174 33.416 27.232 32.151C27.241 31.3902 27.3807 30.6365 27.645 29.923C27.8447 29.4053 28.1505 28.9352 28.5429 28.5429C28.9352 28.1505 29.4053 27.8447 29.923 27.645C30.6365 27.3807 31.3902 27.241 32.151 27.232C33.416 27.174 33.796 27.162 37 27.162M37 25C33.741 25 33.332 25.014 32.052 25.072C31.0568 25.0921 30.0722 25.2808 29.14 25.63C28.3427 25.9383 27.6187 26.4098 27.0142 27.0142C26.4098 27.6187 25.9383 28.3427 25.63 29.14C25.2807 30.0725 25.092 31.0574 25.072 32.053C25.014 33.333 25 33.74 25 37C25 40.26 25.014 40.668 25.072 41.948C25.0921 42.9432 25.2808 43.9278 25.63 44.86C25.9383 45.6573 26.4098 46.3813 27.0142 46.9858C27.6187 47.5902 28.3427 48.0617 29.14 48.37C30.0725 48.7193 31.0574 48.908 32.053 48.928C33.333 48.986 33.741 49 37 49C40.259 49 40.668 48.986 41.948 48.928C42.9436 48.908 43.9285 48.7193 44.861 48.37C45.6583 48.0617 46.3823 47.5902 46.9868 46.9858C47.5912 46.3813 48.0627 45.6573 48.371 44.86C48.72 43.9275 48.9083 42.9425 48.928 41.947C48.986 40.667 49 40.26 49 37C49 33.74 48.986 33.332 48.928 32.052C48.9079 31.0568 48.7192 30.0722 48.37 29.14C48.0617 28.3427 47.5902 27.6187 46.9858 27.0142C46.3813 26.4098 45.6573 25.9383 44.86 25.63C43.9275 25.281 42.9425 25.0927 41.947 25.073C40.667 25.013 40.26 25 37 25Z" fill="#91AAB9"/>
</svg>
