<svg width="74" height="74" viewBox="0 0 74 74" fill="none" xmlns="http://www.w3.org/2000/svg">
<circle cx="37" cy="37" r="37" fill="#172F3E" fill-opacity="0.7"/>
<path d="M51 27.8235C49.9694 28.3176 48.8585 28.6424 47.7075 28.7976C48.8853 28.0494 49.7954 26.8635 50.2237 25.4376C49.1128 26.1435 47.8815 26.6376 46.5832 26.92C45.5258 25.7059 44.0402 25 42.3537 25C39.2084 25 36.6386 27.7106 36.6386 31.0565C36.6386 31.5365 36.6922 32.0024 36.7859 32.44C32.021 32.1859 27.7782 29.7718 24.9541 26.1153C24.4589 27.0047 24.1778 28.0494 24.1778 29.1506C24.1778 31.2541 25.1816 33.1176 26.7342 34.1765C25.7839 34.1765 24.9006 33.8941 24.1243 33.4706V33.5129C24.1243 36.4494 26.1052 38.9059 28.7285 39.4565C27.8863 39.6996 27.002 39.7334 26.1453 39.5553C26.5088 40.7588 27.2208 41.8119 28.1811 42.5665C29.1414 43.3211 30.3017 43.7393 31.499 43.7624C29.4695 45.4571 26.9537 46.3732 24.3652 46.36C23.9101 46.36 23.4551 46.3318 23 46.2753C25.543 47.9976 28.5679 49 31.8069 49C42.3537 49 48.1491 39.7671 48.1491 31.7624C48.1491 31.4941 48.1491 31.24 48.1358 30.9718C49.26 30.1247 50.2237 29.0518 51 27.8235V27.8235Z" fill="#91AAB9"/>
</svg>
