<svg width="74" height="74" viewBox="0 0 74 74" fill="none" xmlns="http://www.w3.org/2000/svg">
<circle cx="37" cy="37" r="37" fill="#172F3E" fill-opacity="0.7"/>
<path d="M33.8 40.5714L40.8065 36.5L33.8 32.4286V40.5714ZM49.406 29.945C49.5815 30.5829 49.703 31.4379 49.784 32.5236C49.8785 33.6093 49.919 34.5457 49.919 35.36L50 36.5C50 39.4721 49.784 41.6571 49.406 43.055C49.0685 44.2764 48.2855 45.0636 47.0705 45.4029C46.436 45.5793 45.275 45.7014 43.493 45.7829C41.738 45.8779 40.1315 45.9186 38.6465 45.9186L36.5 46C30.8435 46 27.32 45.7829 25.9295 45.4029C24.7145 45.0636 23.9315 44.2764 23.594 43.055C23.4185 42.4171 23.297 41.5621 23.216 40.4764C23.1215 39.3907 23.081 38.4543 23.081 37.64L23 36.5C23 33.5279 23.216 31.3429 23.594 29.945C23.9315 28.7236 24.7145 27.9364 25.9295 27.5971C26.564 27.4207 27.725 27.2986 29.507 27.2171C31.262 27.1221 32.8685 27.0814 34.3535 27.0814L36.5 27C42.1565 27 45.68 27.2171 47.0705 27.5971C48.2855 27.9364 49.0685 28.7236 49.406 29.945V29.945Z" fill="#91AAB9"/>
</svg>
