<svg width="74" height="74" viewBox="0 0 74 74" fill="none" xmlns="http://www.w3.org/2000/svg">
<circle cx="37" cy="37" r="37" fill="#172F3E" fill-opacity="0.7"/>
<path d="M46.3333 25C47.0406 25 47.7189 25.281 48.219 25.781C48.719 26.2811 49 26.9594 49 27.6667V46.3333C49 47.0406 48.719 47.7189 48.219 48.219C47.7189 48.719 47.0406 49 46.3333 49H27.6667C26.9594 49 26.2811 48.719 25.781 48.219C25.281 47.7189 25 47.0406 25 46.3333V27.6667C25 26.9594 25.281 26.2811 25.781 25.781C26.2811 25.281 26.9594 25 27.6667 25H46.3333ZM45.6667 45.6667V38.6C45.6667 37.4472 45.2087 36.3416 44.3936 35.5264C43.5784 34.7113 42.4728 34.2533 41.32 34.2533C40.1867 34.2533 38.8667 34.9467 38.2267 35.9867V34.5067H34.5067V45.6667H38.2267V39.0933C38.2267 38.0667 39.0533 37.2267 40.08 37.2267C40.5751 37.2267 41.0499 37.4233 41.3999 37.7734C41.75 38.1235 41.9467 38.5983 41.9467 39.0933V45.6667H45.6667ZM30.1733 32.4133C30.7674 32.4133 31.3372 32.1773 31.7573 31.7573C32.1773 31.3372 32.4133 30.7674 32.4133 30.1733C32.4133 28.9333 31.4133 27.92 30.1733 27.92C29.5757 27.92 29.0026 28.1574 28.58 28.58C28.1574 29.0026 27.92 29.5757 27.92 30.1733C27.92 31.4133 28.9333 32.4133 30.1733 32.4133M32.0267 45.6667V34.5067H28.3333V45.6667H32.0267V45.6667Z" fill="#91AAB9"/>
</svg>
