<svg width="74" height="74" viewBox="0 0 74 74" fill="none" xmlns="http://www.w3.org/2000/svg">
<circle cx="37" cy="37" r="37" fill="#FFE9DB"/>
<path d="M27.936 19.4329L30.0755 18.7894C31.2475 18.436 32.5081 18.5211 33.622 19.0288C34.736 19.5365 35.6271 20.4321 36.1292 21.5486L37.7828 25.2262C38.2145 26.1865 38.3347 27.2579 38.1266 28.29C37.9185 29.3221 37.3925 30.2631 36.6223 30.9811L33.8833 33.5349C33.8033 33.6095 33.7526 33.7103 33.7403 33.8191C33.6597 34.5469 34.1528 35.9641 35.2895 37.9349C36.1163 39.3667 36.8662 40.3732 37.5023 40.9361C37.946 41.3302 38.1898 41.4146 38.2943 41.3852L41.9793 40.2577C42.9857 39.9499 44.0631 39.9647 45.0606 40.3001C46.0581 40.6354 46.9257 41.2745 47.5417 42.1277L49.8902 45.3837C50.6044 46.3739 50.935 47.5896 50.8207 48.805C50.7064 50.0205 50.1549 51.1532 49.2687 51.9929L47.6443 53.5329C46.7822 54.3493 45.7234 54.9285 44.571 55.2141C43.4185 55.4997 42.2117 55.482 41.0682 55.1627C36.0192 53.7529 31.4927 49.4922 27.4373 42.4687C23.3765 35.4361 21.952 29.3787 23.2647 24.2949C23.5602 23.1515 24.1452 22.1035 24.9634 21.2519C25.7816 20.4003 26.8054 19.7739 27.936 19.4329V19.4329ZM28.7298 22.0674C28.0516 22.2717 27.4375 22.6473 26.9465 23.1578C26.4556 23.6684 26.1043 24.2967 25.9267 24.9824C24.823 29.2577 26.0862 34.6276 29.8188 41.0937C33.546 47.5507 37.5592 51.3274 41.8088 52.5154C42.4948 52.7064 43.2184 52.7167 43.9095 52.5451C44.6005 52.3736 45.2354 52.0261 45.7523 51.5364L47.3785 49.9964C47.7815 49.6147 48.0322 49.0997 48.0842 48.547C48.1361 47.9944 47.9857 47.4417 47.6608 46.9916L45.3142 43.7374C45.0342 43.3491 44.6396 43.0583 44.1858 42.9057C43.732 42.7531 43.2419 42.7465 42.7842 42.8867L39.09 44.0179C36.945 44.6559 34.998 42.9307 32.908 39.3099C31.5 36.8716 30.8437 34.9832 31.0068 33.5147C31.093 32.7521 31.4468 32.0481 32.0078 31.5237L34.7468 28.9699C35.0971 28.6436 35.3363 28.2158 35.431 27.7466C35.5257 27.2774 35.4711 26.7903 35.2748 26.3537L33.6212 22.6761C33.393 22.169 32.9882 21.7622 32.4822 21.5315C31.9763 21.3007 31.4037 21.2619 30.8712 21.4221L28.7298 22.0674V22.0674Z" fill="#F26F15"/>
</svg>
