<svg width="74" height="74" viewBox="0 0 74 74" fill="none" xmlns="http://www.w3.org/2000/svg">
<circle cx="37" cy="37" r="37" fill="#FFE9DB"/>
<path d="M48.2173 26.1999L26.5093 34.6345L32.948 37.3092C34.83 38.0899 36.3252 39.5856 37.1053 41.4679L39.78 47.9052L48.2173 26.1999ZM50.68 27.1092L42.2426 48.8172C41.7093 50.1905 40.1746 50.8932 38.8146 50.3905C38.4832 50.2682 38.1807 50.0786 37.926 49.8338C37.6713 49.589 37.47 49.2942 37.3346 48.9679L34.6586 42.5279C34.138 41.2736 33.1411 40.2772 31.8866 39.7572L25.4493 37.0825C24.1106 36.5265 23.5 34.9812 24.0853 33.6292C24.2291 33.2987 24.4368 33 24.6965 32.7501C24.9563 32.5002 25.2628 32.3041 25.5986 32.1732L47.3066 23.7359C47.7782 23.5464 48.2951 23.4996 48.793 23.6014C49.291 23.7032 49.7481 23.949 50.1074 24.3084C50.4668 24.6678 50.7127 25.1248 50.8145 25.6228C50.9163 26.1207 50.8695 26.6376 50.68 27.1092V27.1092Z" fill="#F26F15"/>
</svg>
