<svg width="74" height="74" viewBox="0 0 74 74" fill="none" xmlns="http://www.w3.org/2000/svg">
<circle cx="37" cy="37" r="37" fill="#FFE9DB"/>
<path d="M52.625 50.25C52.625 50.25 55 50.25 55 47.875C55 45.5 52.625 38.375 43.125 38.375C33.625 38.375 31.25 45.5 31.25 47.875C31.25 50.25 33.625 50.25 33.625 50.25H52.625ZM33.6772 47.875C33.6597 47.8726 33.6423 47.8694 33.625 47.8655C33.6274 47.2385 34.0216 45.4193 35.43 43.7805C36.741 42.2439 39.0447 40.75 43.125 40.75C47.2029 40.75 49.5066 42.2462 50.82 43.7805C52.2284 45.4193 52.6202 47.2409 52.625 47.8655L52.606 47.8703C52.595 47.8721 52.5839 47.8737 52.5727 47.875H33.6772V47.875ZM43.125 33.625C44.3848 33.625 45.593 33.1246 46.4838 32.2338C47.3746 31.343 47.875 30.1348 47.875 28.875C47.875 27.6152 47.3746 26.407 46.4838 25.5162C45.593 24.6254 44.3848 24.125 43.125 24.125C41.8652 24.125 40.657 24.6254 39.7662 25.5162C38.8754 26.407 38.375 27.6152 38.375 28.875C38.375 30.1348 38.8754 31.343 39.7662 32.2338C40.657 33.1246 41.8652 33.625 43.125 33.625ZM50.25 28.875C50.25 29.8107 50.0657 30.7372 49.7076 31.6016C49.3496 32.4661 48.8248 33.2515 48.1631 33.9131C47.5015 34.5748 46.7161 35.0996 45.8516 35.4576C44.9872 35.8157 44.0607 36 43.125 36C42.1893 36 41.2628 35.8157 40.3984 35.4576C39.5339 35.0996 38.7485 34.5748 38.0869 33.9131C37.4252 33.2515 36.9004 32.4661 36.5424 31.6016C36.1843 30.7372 36 29.8107 36 28.875C36 26.9853 36.7507 25.1731 38.0869 23.8369C39.4231 22.5007 41.2353 21.75 43.125 21.75C45.0147 21.75 46.8269 22.5007 48.1631 23.8369C49.4993 25.1731 50.25 26.9853 50.25 28.875V28.875ZM33.473 39.04C32.523 38.7408 31.5436 38.5442 30.5517 38.4534C29.9944 38.4004 29.4349 38.3742 28.875 38.375C19.375 38.375 17 45.5 17 47.875C17 49.4591 17.7909 50.25 19.375 50.25H29.388C29.0359 49.5086 28.8603 48.6957 28.875 47.875C28.875 45.4763 29.7704 43.0252 31.4638 40.978C32.0409 40.2797 32.713 39.6266 33.473 39.04ZM28.685 40.75C27.2794 42.862 26.52 45.3381 26.5 47.875H19.375C19.375 47.2575 19.7645 45.4288 21.18 43.7805C22.4744 42.27 24.7235 40.7975 28.685 40.7524V40.75ZM20.5625 30.0625C20.5625 28.1728 21.3132 26.3606 22.6494 25.0244C23.9856 23.6882 25.7978 22.9375 27.6875 22.9375C29.5772 22.9375 31.3894 23.6882 32.7256 25.0244C34.0618 26.3606 34.8125 28.1728 34.8125 30.0625C34.8125 31.9522 34.0618 33.7644 32.7256 35.1006C31.3894 36.4368 29.5772 37.1875 27.6875 37.1875C25.7978 37.1875 23.9856 36.4368 22.6494 35.1006C21.3132 33.7644 20.5625 31.9522 20.5625 30.0625V30.0625ZM27.6875 25.3125C26.4277 25.3125 25.2195 25.8129 24.3287 26.7037C23.4379 27.5945 22.9375 28.8027 22.9375 30.0625C22.9375 31.3223 23.4379 32.5305 24.3287 33.4213C25.2195 34.3121 26.4277 34.8125 27.6875 34.8125C28.9473 34.8125 30.1555 34.3121 31.0463 33.4213C31.9371 32.5305 32.4375 31.3223 32.4375 30.0625C32.4375 28.8027 31.9371 27.5945 31.0463 26.7037C30.1555 25.8129 28.9473 25.3125 27.6875 25.3125Z" fill="#F26F15"/>
</svg>
