<svg width="74" height="74" viewBox="0 0 74 74" fill="none" xmlns="http://www.w3.org/2000/svg">
<circle cx="37" cy="37" r="37" fill="#FFE9DB"/>
<path d="M32.6418 46.1376C32.6804 45.9545 32.7016 45.7656 32.76 45.5906C33.5256 43.2821 34.2945 40.975 35.0667 38.6693C35.0967 38.5768 35.1414 38.4898 35.199 38.4118C39.2304 33.1172 43.2644 27.8238 47.3011 22.5317C47.6689 22.0495 48.0322 21.5639 48.4208 21.1011C49.0205 20.3913 49.7749 19.9811 50.7172 20.0017C51.2804 20.0143 51.783 20.2171 52.2239 20.5685C53.147 21.3043 54.071 22.0385 54.9851 22.7854C56.0086 23.6214 56.2919 24.9526 55.6744 26.1749C55.4467 26.6251 55.1315 27.0349 54.8233 27.4371C50.7027 32.8112 46.5778 38.1825 42.4488 43.5512C42.4006 43.619 42.3429 43.6793 42.2775 43.7301C40.585 44.9279 38.8938 46.1283 37.1943 47.3148C36.7911 47.5966 36.3715 47.8533 35.9377 48.0835C35.0949 48.5303 34.2522 48.5619 33.4721 47.9388C32.9064 47.4882 32.6891 46.8566 32.6418 46.1376ZM48.9363 25.8787C48.8849 25.9422 48.8484 25.9843 48.8148 26.0281C45.2416 30.7101 41.668 35.392 38.0942 40.0738C37.8582 40.3826 37.8524 40.5004 38.0635 40.8366C38.3074 41.2245 38.6881 41.4118 39.0933 41.5716C39.3164 41.6596 39.4495 41.6226 39.6063 41.4193C42.8984 37.1558 46.196 32.8953 49.4991 28.6379C49.8649 28.1659 50.2299 27.6925 50.6052 27.2074L48.9363 25.8787ZM51.0676 27.5793C50.9992 27.666 50.9465 27.7304 50.8955 27.7964L44.3806 36.2071C42.9045 38.1145 41.4271 40.0195 39.9484 41.9221C39.8344 42.0685 39.8274 42.1859 39.912 42.3374C40.0953 42.6643 40.3918 42.8297 40.7265 42.942C40.7452 42.948 40.765 42.9498 40.7845 42.9474C40.8041 42.945 40.8229 42.9384 40.8397 42.9281C41.0495 42.7598 41.2959 42.6193 41.456 42.411C44.7215 38.1632 47.9811 33.9106 51.2347 29.6532C51.5383 29.2569 51.8411 28.8597 52.1529 28.4511L51.0676 27.5793ZM47.4856 24.7183C47.4276 24.7911 47.3753 24.8546 47.3256 24.9198L36.933 38.5612C36.7766 38.7661 36.6153 38.9677 36.4656 39.1776C36.2819 39.4343 36.2951 39.5533 36.5635 39.6972C36.7547 39.7995 36.9728 39.8521 37.1814 39.9185C37.3577 39.9745 37.4784 39.916 37.599 39.7578C40.8801 35.4491 44.1647 31.1435 47.4529 26.8409C47.7896 26.3996 48.126 25.9574 48.471 25.5038L47.4856 24.7183ZM36.1342 40.1407C36.1167 40.1675 36.1013 40.1956 36.0882 40.2248C35.5452 41.8556 35.0047 43.4873 34.4666 45.1198C34.4467 45.1808 34.489 45.2936 34.5396 45.3424C34.8888 45.6811 35.2534 46.0042 35.6017 46.3442C35.712 46.4514 35.7904 46.4603 35.9148 46.3732C37.3009 45.4035 38.6887 44.4358 40.0783 43.47C40.1167 43.4387 40.1532 43.4048 40.1873 43.3686C39.7726 43.1427 39.4408 42.8528 39.3073 42.3934C39.2658 42.2562 39.1912 42.2099 39.0701 42.1741C38.2531 41.9347 37.597 41.5098 37.3494 40.6174C37.3389 40.5944 37.3232 40.5742 37.3036 40.5584C37.284 40.5426 37.2611 40.5317 37.2366 40.5265C36.8409 40.487 36.4697 40.3734 36.1342 40.1407ZM53.0998 27.2659C53.4178 26.8498 53.7218 26.453 54.0254 26.0541C54.1179 25.9321 54.2029 25.8042 54.29 25.6784C54.309 25.6491 54.3259 25.6184 54.3406 25.5867C54.6815 24.9249 54.5633 24.3354 53.9864 23.8709C53.1105 23.1657 52.2305 22.466 51.3534 21.7625C50.9386 21.4289 50.4891 21.4053 50.0387 21.6548C49.8337 21.7704 49.651 21.9226 49.4995 22.1042C49.1342 22.5422 48.7945 23.0033 48.4466 23.4556C48.4278 23.4861 48.4119 23.5184 48.3993 23.552L53.0998 27.2659Z" fill="#F26F15"/>
<path d="M37.5637 52.2135C36.8172 52.1243 36.0678 52.0612 35.3267 51.94C34.3878 51.7865 33.5285 51.4069 32.7554 50.8427C32.4651 50.6324 32.1885 50.6021 31.8692 50.7666C31.6055 50.9043 31.3318 51.0211 31.0505 51.1162C30.0469 51.4469 29.2552 51.0321 28.9047 50.0223C28.8526 49.8724 28.7798 49.7308 28.6886 49.6015C28.5866 49.4576 28.4489 49.4635 28.349 49.6099C28.2749 49.7269 28.2116 49.8506 28.1599 49.9794C28.0608 50.2024 27.9915 50.4422 27.8696 50.6525C27.1185 51.9514 25.3335 51.9855 24.531 50.7182C24.1715 50.1506 24.0396 49.5128 24.0823 48.8501C24.1184 48.285 24.2237 47.7254 24.2793 47.1612C24.3096 46.8566 24.3361 46.5431 24.3005 46.2415C24.2675 45.9382 24.1221 45.659 23.8938 45.4605C23.6654 45.262 23.3712 45.159 23.0708 45.1723C22.4408 45.2073 21.8843 45.7509 21.9096 46.3963C21.9299 46.9433 22.0244 47.4949 22.1302 48.0372C22.289 48.8467 22.5084 49.6444 22.6627 50.4548C22.8464 51.42 22.693 52.3259 22.0609 53.1055C21.4082 53.9116 20.4303 54.1961 19.4544 53.8717C19.3023 53.8218 19.1734 53.7174 19.0918 53.5779C19.0103 53.4385 18.9817 53.2736 19.0115 53.1143C19.0832 52.7357 19.3764 52.4925 19.7248 52.5223C19.814 52.5299 19.9015 52.5564 19.9902 52.5644C20.5978 52.6237 21.1345 52.1756 21.2792 51.5041C21.3659 51.1002 21.3078 50.7047 21.2141 50.3176C21.0187 49.509 20.7882 48.7091 20.5957 47.9C20.4195 47.1574 20.3502 46.406 20.5791 45.6575C20.755 45.0844 21.1114 44.5857 21.5937 44.238C22.076 43.8904 22.6574 43.7129 23.2487 43.733C24.3793 43.7776 25.4326 44.6683 25.6931 45.8127C25.8362 46.4405 25.7545 47.0691 25.6516 47.6918C25.5355 48.3898 25.5032 49.0836 25.6649 49.7787C25.7188 50.0101 25.8553 50.1498 26.0796 50.191C26.1821 50.2143 26.2892 50.2045 26.3859 50.1629C26.4826 50.1214 26.564 50.0501 26.6188 49.9592C26.6726 49.8698 26.7167 49.7747 26.7502 49.6756C26.8228 49.4867 26.8809 49.2914 26.9576 49.105C27.2296 48.4592 27.6892 48.0532 28.4021 48.0258C29.161 47.9947 29.7163 48.3376 30.0518 49.031C30.1427 49.2186 30.2049 49.4206 30.2837 49.6146C30.3426 49.761 30.4429 49.8216 30.5968 49.7551C30.8626 49.6402 31.1318 49.5317 31.3947 49.4092C32.1603 49.0529 32.8745 49.1059 33.5463 49.6482C34.3558 50.3021 35.3139 50.5474 36.3187 50.6269C36.9653 50.6782 37.6152 50.6845 38.263 50.7207C38.421 50.726 38.5774 50.7557 38.7266 50.8086C39.0385 50.929 39.1828 51.2147 39.1459 51.571C39.1119 51.8841 38.9157 52.1113 38.5798 52.1424C38.2439 52.1735 37.9051 52.1491 37.5675 52.1491L37.5637 52.2135Z" fill="#F26F15"/>
</svg>
