<svg width="74" height="74" viewBox="0 0 74 74" fill="none" xmlns="http://www.w3.org/2000/svg">
<circle cx="37" cy="37" r="37" fill="#FFE9DB"/>
<path d="M51.9999 23.6665H21.9999C21.5579 23.6665 21.134 23.8421 20.8214 24.1547C20.5088 24.4672 20.3333 24.8911 20.3333 25.3332V48.6665C20.3333 49.1085 20.5088 49.5325 20.8214 49.845C21.134 50.1576 21.5579 50.3332 21.9999 50.3332H51.9999C52.4419 50.3332 52.8659 50.1576 53.1784 49.845C53.491 49.5325 53.6666 49.1085 53.6666 48.6665V25.3332C53.6666 24.8911 53.491 24.4672 53.1784 24.1547C52.8659 23.8421 52.4419 23.6665 51.9999 23.6665V23.6665ZM50.3333 41.9998C49.0072 41.9998 47.7354 42.5266 46.7977 43.4643C45.86 44.402 45.3333 45.6738 45.3333 46.9998H28.6666C28.6666 45.6738 28.1398 44.402 27.2021 43.4643C26.2644 42.5266 24.9927 41.9998 23.6666 41.9998V31.9998C24.9927 31.9998 26.2644 31.4731 27.2021 30.5354C28.1398 29.5977 28.6666 28.3259 28.6666 26.9998H45.3333C45.3333 28.3259 45.86 29.5977 46.7977 30.5354C47.7354 31.4731 49.0072 31.9998 50.3333 31.9998V41.9998Z" fill="#F26F15"/>
<path d="M36.9999 30.3335C33.3233 30.3335 30.3333 33.3235 30.3333 37.0002C30.3333 40.6768 33.3233 43.6668 36.9999 43.6668C40.6766 43.6668 43.6666 40.6768 43.6666 37.0002C43.6666 33.3235 40.6766 30.3335 36.9999 30.3335ZM36.9999 40.3335C35.1616 40.3335 33.6666 38.8385 33.6666 37.0002C33.6666 35.1618 35.1616 33.6668 36.9999 33.6668C38.8383 33.6668 40.3333 35.1618 40.3333 37.0002C40.3333 38.8385 38.8383 40.3335 36.9999 40.3335Z" fill="#F26F15"/>
</svg>
