<svg width="74" height="74" viewBox="0 0 74 74" fill="none" xmlns="http://www.w3.org/2000/svg">
<circle cx="37" cy="37" r="37" fill="#FFE9DB"/>
<path d="M51.7188 27.5312H23.2812C22.6763 27.5312 22.1875 27.9362 22.1875 28.4375V46.5625C22.1875 47.0638 22.6763 47.4688 23.2812 47.4688H51.7188C52.3237 47.4688 52.8125 47.0638 52.8125 46.5625V28.4375C52.8125 27.9362 52.3237 27.5312 51.7188 27.5312ZM24.6484 29.5703H50.3516V32.9688H24.6484V29.5703ZM50.3516 45.4297H24.6484V35.4609H50.3516V45.4297ZM42.251 43.6172H47.8906C48.041 43.6172 48.1641 43.5152 48.1641 43.3906V41.3516C48.1641 41.227 48.041 41.125 47.8906 41.125H42.251C42.1006 41.125 41.9775 41.227 41.9775 41.3516V43.3906C41.9775 43.5152 42.1006 43.6172 42.251 43.6172Z" fill="#F26F15"/>
</svg>
