<svg width="74" height="74" viewBox="0 0 74 74" fill="none" xmlns="http://www.w3.org/2000/svg">
<circle cx="37" cy="37" r="37" fill="#FFE9DB"/>
<path d="M52 25.6899C51.82 22.2799 42.53 21.3599 37 21.3599C31.47 21.3599 22 22.2899 22 25.7799V48.3699C22 51.8599 31.43 52.7999 37 52.7999C42.57 52.7999 52 51.8699 52 48.3699V25.6899ZM50 33.2499C49.67 34.1099 44.94 35.6999 37 35.6999C33.2862 35.7946 29.5789 35.3363 26 34.3399V36.4199C29.5968 37.3154 33.2937 37.7456 37 37.6999C41 37.6999 46.93 37.2199 50 35.6999V40.8699C49.67 41.7299 44.94 43.3199 37 43.3199C33.2842 43.4016 29.5769 42.9298 26 41.9199V43.9999C29.5968 44.8954 33.2937 45.3256 37 45.2799C41 45.2799 46.93 44.7999 50 43.2799V48.3799C49.65 49.2399 44.92 50.8299 37 50.8299C29.08 50.8299 24.3 49.1999 24 48.3699V25.8199C24.3 24.9999 29 23.3599 37 23.3599C44.77 23.3599 49.46 24.8899 50 25.7299C49.48 26.5999 44.79 28.1199 37 28.1199C33.2863 28.2124 29.5793 27.7541 26 26.7599V28.8499C29.5977 29.7397 33.2942 30.1665 37 30.1199C41 30.1199 46.93 29.6399 50 28.1199V33.2499Z" fill="#F26F15"/>
</svg>
