<svg width="1920" height="8307" viewBox="0 0 1920 8307" fill="none" xmlns="http://www.w3.org/2000/svg">
<g clip-path="url(#clip0_675_514)">
<rect width="1920" height="8307" fill="url(#paint0_linear_675_514)"/>
<g opacity="0.47">
<g opacity="0.36" clip-path="url(#clip1_675_514)">
<g opacity="0.8">
<path d="M-261.998 2124.34C-261.717 2117.53 -259.19 2110.85 -254.838 2105.2L439.143 1196.72C445.18 1188.75 454.306 1183.48 464.836 1181.68C475.365 1180.01 485.895 1182.07 494.6 1187.6L1490.01 1821.35C1501.24 1828.54 1507.56 1840.23 1507 1852.83C1506.72 1859.64 1504.19 1866.32 1499.84 1871.97L805.859 2780.45C799.822 2788.42 790.696 2793.69 780.167 2795.49C769.637 2797.16 759.107 2795.1 750.402 2789.57L-244.869 2155.82C-256.101 2148.63 -262.559 2136.94 -261.998 2124.34ZM1503.77 1852.7C1504.33 1841.13 1498.44 1830.34 1488.19 1823.79L492.775 1190.04C484.772 1184.9 475.085 1182.97 465.397 1184.51C455.71 1186.05 447.426 1190.94 441.811 1198.26L-252.17 2106.74C-256.101 2112.01 -258.348 2118.05 -258.769 2124.34C-259.33 2135.91 -253.434 2146.7 -243.185 2153.25L752.228 2787C760.23 2792.14 769.918 2794.07 779.605 2792.53C789.292 2790.99 797.576 2786.11 803.192 2778.78L1497.17 1870.3C1501.24 1865.16 1503.49 1859 1503.77 1852.7Z" fill="#DADADA"/>
<path d="M-267.193 2089.26C-266.912 2082.45 -264.385 2075.77 -259.892 2070.25L428.894 1192.61C434.931 1184.9 443.916 1179.76 454.165 1178.22C464.414 1176.67 474.663 1178.86 483.087 1184.38L1444.66 1813.25C1455.33 1820.32 1461.37 1831.63 1460.81 1843.7C1460.53 1850.51 1458 1857.2 1453.51 1862.72L764.723 2740.36C752.227 2756.29 727.939 2759.89 710.53 2748.58L-251.047 2119.59C-261.717 2112.65 -267.754 2101.34 -267.193 2089.26ZM1457.58 1843.58C1458.14 1832.53 1452.53 1822.12 1442.7 1815.69L481.121 1186.7C473.4 1181.68 463.993 1179.63 454.586 1181.04C445.18 1182.46 436.896 1187.08 431.421 1194.15L-257.365 2071.79C-261.436 2076.93 -263.683 2082.97 -263.964 2089.26C-264.525 2100.31 -258.909 2110.72 -249.082 2117.15L712.495 2746.01C728.5 2756.42 750.823 2753.08 762.196 2738.56L1450.98 1860.92C1455.05 1855.91 1457.3 1849.87 1457.58 1843.58Z" fill="#DADADA"/>
<path d="M-272.528 2054.05C-272.247 2047.24 -269.72 2040.69 -265.227 2035.04L418.364 1188.24C430.719 1172.95 454.586 1169.61 471.294 1180.91L1399.18 1805.03C1409.42 1811.84 1415.18 1822.89 1414.62 1834.45C1414.34 1841.26 1411.81 1847.82 1407.32 1853.47L723.727 2700.27C717.69 2707.72 708.845 2712.6 698.877 2713.89C688.909 2715.3 678.94 2712.99 670.657 2707.59L-257.225 2083.48C-267.333 2076.67 -273.089 2065.62 -272.528 2054.05ZM1411.39 1834.32C1411.95 1823.79 1406.62 1813.64 1397.35 1807.47L469.469 1183.36C454.025 1172.95 432.263 1176.03 420.891 1190.04L-262.7 2036.84C-266.772 2041.98 -269.158 2047.89 -269.439 2054.18C-270.001 2064.72 -264.666 2074.87 -255.399 2081.04L672.482 2705.15C679.923 2710.16 689.049 2712.22 698.315 2710.93C707.441 2709.65 715.584 2705.28 721.059 2698.47L1404.65 1851.67C1408.72 1846.66 1411.11 1840.62 1411.39 1834.32Z" fill="#DADADA"/>
<path d="M-277.863 2018.97C-277.582 2012.16 -274.914 2005.61 -270.422 2000.09L407.835 1184.13C413.731 1176.93 422.436 1172.3 432.264 1171.15C442.091 1169.86 451.779 1172.3 459.641 1177.7L1353.69 1797.06C1363.37 1803.74 1368.85 1814.41 1368.29 1825.46C1368.01 1832.27 1365.34 1838.82 1360.85 1844.35L682.591 2660.31C670.236 2675.08 647.07 2678.04 630.784 2666.73L-263.261 2047.37C-272.949 2040.56 -278.424 2030.03 -277.863 2018.97ZM1365.2 1825.2C1365.62 1815.05 1360.71 1805.41 1351.86 1799.24L457.816 1179.89C450.656 1174.87 441.811 1172.82 432.825 1173.85C423.84 1175 415.978 1179.24 410.502 1185.8L-267.895 2001.88C-272.106 2006.9 -274.493 2012.81 -274.774 2019.1C-275.195 2029.25 -270.281 2038.89 -261.436 2045.06L632.61 2664.42C647.492 2674.7 668.692 2672 679.923 2658.51L1358.18 1842.55C1362.53 1837.41 1364.78 1831.5 1365.2 1825.2Z" fill="#DADADA"/>
<path d="M-283.198 1983.77C-282.917 1976.96 -280.25 1970.4 -275.617 1965.01L397.445 1179.89C403.342 1172.95 411.906 1168.58 421.453 1167.55C431 1166.52 440.406 1168.84 447.988 1174.23L1308.34 1788.84C1317.46 1795.39 1322.66 1805.54 1322.1 1816.21C1321.82 1823.02 1319.15 1829.57 1314.52 1834.97L641.454 2620.09C635.558 2627.03 626.994 2631.39 617.447 2632.42C607.9 2633.45 598.493 2631.14 590.912 2625.74L-269.439 2011.14C-278.565 2004.58 -283.76 1994.43 -283.198 1983.77ZM1318.87 1816.08C1319.29 1806.44 1314.66 1797.06 1306.37 1791.15L446.022 1176.55C439.143 1171.66 430.579 1169.48 421.874 1170.38C413.169 1171.41 405.448 1175.39 399.972 1181.68L-273.089 1966.81C-277.301 1971.69 -279.688 1977.73 -279.969 1983.9C-280.39 1993.53 -275.757 2002.91 -267.474 2008.82L592.877 2623.43C599.757 2628.31 608.321 2630.49 617.025 2629.6C625.73 2628.57 633.452 2624.58 638.927 2618.29L1311.99 1833.17C1316.2 1828.28 1318.59 1822.37 1318.87 1816.08Z" fill="#DADADA"/>
<path d="M-288.533 1948.69C-288.252 1941.88 -285.585 1935.32 -280.811 1930.05L387.056 1175.77C399.27 1162.02 421.312 1159.97 436.335 1171.02L1262.85 1780.87C1271.41 1787.17 1276.33 1797.06 1275.91 1807.21C1275.63 1814.02 1272.96 1820.57 1268.19 1825.97L600.318 2580.25C594.422 2586.93 585.998 2591.05 576.732 2591.95C567.465 2592.85 558.34 2590.4 551.039 2585.01L-275.616 1975.03C-284.181 1968.6 -289.095 1958.84 -288.533 1948.69ZM1272.68 1806.95C1273.1 1797.7 1268.75 1788.84 1260.88 1783.05L434.369 1173.2C420.751 1163.18 400.534 1165.11 389.583 1177.57L-278.284 1931.85C-282.636 1936.74 -285.023 1942.65 -285.304 1948.82C-285.725 1958.07 -281.373 1966.93 -273.511 1972.72L553.005 2582.57C559.603 2587.45 567.887 2589.63 576.451 2588.86C584.875 2588.09 592.596 2584.24 597.932 2578.2L1265.8 1823.92C1270.01 1819.03 1272.4 1813.12 1272.68 1806.95Z" fill="#DADADA"/>
<path d="M-293.868 1913.48C-293.587 1906.67 -290.779 1900.11 -286.006 1894.85L376.666 1171.41C382.563 1164.98 390.706 1161.13 399.832 1160.35C408.958 1159.58 417.803 1162.15 424.823 1167.55L1217.5 1772.52C1225.79 1778.81 1230.14 1788.07 1229.72 1797.83C1229.44 1804.77 1226.63 1811.19 1221.85 1816.46L559.182 2539.9C547.108 2553.14 525.487 2554.81 511.167 2543.76L-281.654 1938.79C-289.937 1932.5 -294.43 1923.37 -293.868 1913.48ZM1226.49 1797.7C1226.91 1788.84 1222.84 1780.48 1215.4 1774.83L422.717 1169.73C416.399 1164.85 408.396 1162.54 400.113 1163.31C391.829 1163.95 384.388 1167.55 379.053 1173.33L-283.619 1896.77C-287.971 1901.53 -290.499 1907.44 -290.779 1913.61C-291.2 1922.47 -287.129 1930.83 -279.688 1936.48L512.992 2541.57C526.049 2551.6 545.704 2549.93 556.515 2537.98L1219.19 1814.54C1223.68 1809.78 1226.21 1804 1226.49 1797.7Z" fill="#DADADA"/>
<path d="M-299.203 1878.4C-298.922 1871.46 -296.114 1865.16 -291.06 1859.9L366.417 1167.29C372.174 1161.13 380.317 1157.53 389.162 1156.88C398.007 1156.37 406.571 1158.94 413.31 1164.21L1172.29 1764.42C1180.02 1770.59 1184.23 1779.33 1183.67 1788.71C1183.39 1795.65 1180.58 1801.94 1175.52 1807.21L518.046 2499.81C512.29 2505.98 504.147 2509.58 495.302 2510.22C486.457 2510.74 477.892 2508.17 471.153 2502.9L-287.831 1902.68C-295.553 1896.52 -299.765 1887.65 -299.203 1878.4ZM1180.3 1788.58C1180.72 1780.1 1176.93 1772.13 1169.91 1766.61L411.064 1166.39C405.027 1161.64 397.305 1159.2 389.302 1159.71C381.299 1160.23 373.999 1163.57 368.804 1169.09L-288.673 1861.69C-293.166 1866.45 -295.693 1872.23 -295.974 1878.4C-296.395 1886.88 -292.604 1894.85 -285.585 1900.37L473.4 2500.58C479.437 2505.34 487.159 2507.78 495.161 2507.27C503.164 2506.75 510.464 2503.41 515.659 2497.89L1173.14 1805.28C1177.49 1800.53 1180.02 1794.75 1180.3 1788.58Z" fill="#DADADA"/>
<path d="M-304.679 1843.19C-304.398 1836.38 -301.449 1829.83 -296.395 1824.82L355.747 1163.05C361.504 1157.14 369.506 1153.8 378.07 1153.29C386.635 1152.9 394.918 1155.6 401.376 1160.87L1126.53 1756.33C1133.69 1762.24 1137.62 1770.72 1137.2 1779.58C1136.91 1786.39 1133.97 1792.95 1128.91 1797.96L476.769 2459.72C471.013 2465.63 463.01 2468.97 454.446 2469.49C445.882 2469.87 437.599 2467.17 431.14 2461.91L-294.008 1866.45C-301.169 1860.54 -305.1 1852.06 -304.679 1843.19ZM1134.11 1779.46C1134.53 1771.49 1131.02 1763.91 1124.42 1758.51L399.27 1162.92C393.514 1158.17 386.073 1155.73 378.211 1156.11C370.489 1156.5 363.329 1159.58 358.134 1164.85L-294.008 1826.61C-298.501 1831.24 -301.169 1837.02 -301.449 1843.19C-301.871 1851.16 -298.361 1858.74 -291.762 1864.14L433.387 2459.59C439.143 2464.35 446.584 2466.79 454.446 2466.4C462.168 2466.02 469.328 2462.93 474.523 2457.67L1126.67 1795.9C1131.16 1791.41 1133.83 1785.49 1134.11 1779.46Z" fill="#DADADA"/>
<path d="M-310.014 1808.11C-309.733 1801.3 -306.644 1794.75 -301.59 1789.74L345.358 1158.81C351.114 1153.16 358.836 1149.95 367.26 1149.69C375.684 1149.43 383.686 1152.13 389.723 1157.4L1081.18 1748.1C1087.92 1753.88 1091.43 1761.98 1091.15 1770.33C1090.86 1777.14 1087.78 1783.7 1082.72 1788.71L435.773 2419.63C423.98 2431.2 404.044 2431.71 391.408 2420.92L-300.045 1830.34C-306.784 1824.56 -310.435 1816.46 -310.014 1808.11ZM1087.92 1770.2C1088.34 1762.62 1084.97 1755.43 1078.93 1750.29L387.617 1159.58C382.142 1154.83 374.982 1152.39 367.4 1152.64C359.819 1152.9 352.939 1155.73 347.745 1160.74L-299.203 1791.66C-303.836 1796.16 -306.504 1801.94 -306.784 1808.11C-307.206 1815.69 -303.836 1822.89 -297.939 1828.03L393.514 2418.73C404.886 2428.5 422.717 2427.85 433.387 2417.57L1080.33 1786.65C1084.97 1782.15 1087.64 1776.37 1087.92 1770.2Z" fill="#DADADA"/>
<path d="M-315.349 1772.9C-315.068 1766.09 -311.979 1759.54 -306.644 1754.66L335.109 1154.57C346.902 1143.52 366.277 1143.39 378.351 1154.06L1035.97 1740.01C1042.15 1745.53 1045.52 1753.24 1045.1 1761.21C1044.81 1768.02 1041.73 1774.57 1036.39 1779.46L394.637 2379.54C382.844 2390.59 363.469 2390.72 351.395 2380.05L-306.223 1794.1C-312.4 1788.58 -315.77 1780.87 -315.349 1772.9ZM1041.73 1761.08C1042.01 1754.01 1039.06 1747.07 1033.44 1742.06L375.964 1156.11C365.154 1146.48 347.885 1146.73 337.215 1156.5L-304.538 1756.58C-309.171 1760.95 -311.979 1766.73 -312.26 1772.9C-312.541 1779.97 -309.593 1786.91 -303.977 1791.92L353.641 2377.87C364.452 2387.51 381.721 2387.25 392.251 2377.48L1034 1777.4C1038.78 1773.03 1041.44 1767.25 1041.73 1761.08Z" fill="#DADADA"/>
<path d="M-320.824 1737.82C-320.543 1730.88 -317.314 1724.46 -311.979 1719.7L324.579 1150.33C336.232 1139.92 355.045 1140.05 366.558 1150.72L990.34 1731.91C996.097 1737.31 999.185 1744.63 998.764 1752.09C998.483 1759.02 995.254 1765.45 989.919 1770.2L353.361 2339.45C341.708 2349.86 322.895 2349.73 311.382 2339.06L-312.4 1757.87C-318.016 1752.6 -321.105 1745.28 -320.824 1737.82ZM995.675 1751.96C995.956 1745.28 993.289 1738.72 988.094 1733.97L364.312 1152.77C354.063 1143.26 337.355 1143.14 326.826 1152.39L-309.733 1721.76C-314.506 1726.13 -317.314 1731.78 -317.595 1737.95C-317.876 1744.63 -315.208 1751.19 -310.014 1755.94L313.769 2337.14C324.018 2346.64 340.725 2346.77 351.255 2337.52L987.813 1768.28C992.587 1763.78 995.395 1758 995.675 1751.96Z" fill="#DADADA"/>
<path d="M-326.159 1702.61C-325.878 1695.68 -322.649 1689.25 -317.033 1684.5L314.19 1146.09C319.806 1141.34 327.106 1138.77 334.828 1139.02C342.55 1139.28 349.71 1142.24 354.905 1147.38L944.992 1723.82C950.327 1728.96 953.135 1735.77 952.714 1742.96C952.433 1749.9 949.204 1756.33 943.588 1761.08L312.224 2299.36C300.571 2309.25 282.32 2308.74 271.509 2298.07L-318.437 1721.76C-323.773 1716.49 -326.58 1709.81 -326.159 1702.61ZM949.485 1742.71C949.766 1736.41 947.379 1730.37 942.605 1725.74L352.518 1149.3C347.885 1144.68 341.567 1142.11 334.688 1141.85C327.808 1141.59 321.35 1143.91 316.296 1148.15L-314.928 1686.68C-319.841 1690.92 -322.79 1696.57 -323.071 1702.74C-323.351 1709.04 -320.965 1715.08 -316.191 1719.7L273.896 2296.14C283.583 2305.52 299.729 2306.04 310.118 2297.3L941.482 1758.77C946.396 1754.66 949.204 1748.87 949.485 1742.71Z" fill="#DADADA"/>
<path d="M-331.635 1667.53C-331.354 1660.6 -327.984 1654.17 -322.228 1649.54L303.801 1141.85C315.313 1132.47 333.003 1133.5 343.252 1144.03L899.504 1715.72C904.417 1720.73 906.804 1727.16 906.523 1733.84C906.243 1740.78 902.873 1747.2 897.117 1751.83L271.088 2259.39C259.576 2268.77 241.886 2267.75 231.637 2257.21L-324.615 1685.52C-329.529 1680.64 -331.916 1674.22 -331.635 1667.53ZM903.435 1733.58C903.715 1727.67 901.469 1722.02 897.257 1717.52L340.865 1145.96C331.739 1136.58 316.155 1135.81 305.906 1144.03L-320.122 1651.73C-325.177 1655.84 -328.125 1661.49 -328.406 1667.66C-328.686 1673.57 -326.44 1679.23 -322.228 1683.72L234.023 2255.41C243.149 2264.79 258.733 2265.56 268.982 2257.34L895.011 1749.64C900.206 1745.4 903.154 1739.75 903.435 1733.58Z" fill="#DADADA"/>
<path d="M-337.11 1632.33C-336.83 1625.39 -333.32 1618.83 -327.423 1614.46L293.411 1137.61C299.027 1133.37 306.047 1131.31 313.207 1131.83C320.367 1132.34 326.966 1135.55 331.599 1140.57L854.155 1707.37C858.508 1712.12 860.754 1718.16 860.473 1724.46C860.193 1731.4 856.682 1737.95 850.786 1742.32L229.952 2219.3C218.439 2228.04 201.311 2226.76 191.764 2216.35L-330.792 1649.42C-335.145 1644.66 -337.391 1638.62 -337.11 1632.33ZM857.244 1724.46C857.525 1718.93 855.559 1713.66 851.628 1709.42L329.212 1142.49C325.141 1138 319.244 1135.3 312.926 1134.78C306.608 1134.27 300.291 1136.07 295.377 1139.79L-325.457 1616.65C-330.512 1620.63 -333.741 1626.29 -334.022 1632.45C-334.302 1637.98 -332.337 1643.25 -328.406 1647.49L194.151 2214.29C202.715 2223.54 217.878 2224.7 227.986 2216.99L848.82 1740.14C853.875 1736.28 856.963 1730.5 857.244 1724.46Z" fill="#DADADA"/>
<path d="M-342.586 1597.25C-342.305 1590.31 -338.655 1583.75 -332.618 1579.38L283.022 1133.37C288.497 1129.39 295.377 1127.59 302.397 1128.36C309.417 1129.13 315.594 1132.21 320.087 1137.35L808.807 1699.4C812.739 1703.9 814.704 1709.55 814.564 1715.34C814.283 1722.27 810.633 1728.83 804.596 1733.2L188.816 2179.21C177.444 2187.44 160.877 2185.77 151.751 2175.36L-336.97 1613.18C-340.901 1608.68 -342.866 1603.03 -342.586 1597.25ZM811.194 1715.21C811.475 1710.07 809.65 1705.18 806.14 1701.2L317.559 1139.15C313.769 1134.78 308.153 1131.96 302.116 1131.31C295.938 1130.67 289.901 1132.21 285.128 1135.81L-330.652 1581.7C-335.847 1585.55 -339.076 1591.21 -339.357 1597.37C-339.637 1602.39 -337.812 1607.4 -334.302 1611.38L154.419 2173.43C162.421 2182.55 177.022 2184.09 186.991 2176.9L802.63 1730.88C807.684 1727.03 810.913 1721.37 811.194 1715.21Z" fill="#DADADA"/>
<path d="M-348.061 1562.04C-347.78 1554.97 -343.99 1548.55 -337.812 1544.31L272.632 1129.13C284.005 1121.42 300.01 1123.6 308.434 1133.88L763.319 1691.18C766.829 1695.42 768.654 1700.82 768.373 1706.08C768.092 1713.15 764.302 1719.58 758.124 1723.82L147.679 2139.12C136.307 2146.83 120.302 2144.65 111.878 2134.37L-343.007 1577.07C-346.517 1572.7 -348.342 1567.43 -348.061 1562.04ZM765.144 1706.08C765.425 1701.46 763.74 1696.7 760.792 1692.98L305.906 1135.68C298.465 1126.69 284.426 1124.76 274.598 1131.44L-335.847 1546.62C-341.322 1550.34 -344.551 1556 -344.832 1562.17C-345.113 1566.79 -343.428 1571.55 -340.48 1575.27L114.405 2132.57C121.846 2141.56 135.886 2143.49 145.714 2136.81L756.159 1721.63C761.634 1717.91 764.863 1712.25 765.144 1706.08Z" fill="#DADADA"/>
<path d="M-353.677 1526.96C-353.396 1519.89 -349.465 1513.47 -343.007 1509.35L262.243 1125.02C273.475 1117.95 288.919 1120.39 296.781 1130.67L717.971 1683.21C721.059 1687.32 722.604 1692.08 722.323 1697.09C722.042 1704.16 718.111 1710.58 711.653 1714.69L106.543 2099.03C95.3116 2106.1 79.8679 2103.66 72.0057 2093.38L-349.184 1540.84C-352.273 1536.72 -353.817 1531.84 -353.677 1526.96ZM719.094 1696.96C719.234 1692.59 717.971 1688.48 715.303 1684.88L294.113 1132.34C287.234 1123.35 273.756 1121.16 264.068 1127.46L-341.182 1511.67C-346.798 1515.26 -350.167 1520.79 -350.448 1527.09C-350.588 1531.46 -349.325 1535.57 -346.657 1539.17L74.5328 2091.7C81.4123 2100.7 94.8904 2102.88 104.718 2096.59L709.968 1712.25C715.444 1708.78 718.813 1703.13 719.094 1696.96Z" fill="#DADADA"/>
<path d="M-359.152 1491.75C-358.872 1484.68 -354.66 1478.13 -348.201 1474.27L251.854 1120.78C262.945 1114.22 277.968 1117.18 285.128 1127.33L672.482 1675.12C675.15 1678.97 676.554 1683.47 676.273 1687.97C675.992 1695.03 671.78 1701.59 665.322 1705.44L65.4071 2058.94C54.3158 2065.49 39.2934 2062.54 32.1331 2052.38L-355.362 1504.6C-358.029 1500.74 -359.433 1496.25 -359.152 1491.75ZM673.184 1687.84C673.325 1683.85 672.202 1680 669.815 1676.66L282.46 1128.87C276.143 1120.01 263.226 1117.44 253.539 1123.22L-346.376 1476.72C-351.992 1480.06 -355.642 1485.71 -355.923 1491.88C-356.064 1495.86 -354.94 1499.72 -352.554 1503.06L34.8007 2050.84C41.1185 2059.71 54.035 2062.28 63.7224 2056.5L663.637 1703C669.253 1699.66 672.903 1694 673.184 1687.84Z" fill="#DADADA"/>
<path d="M-364.768 1456.54C-364.488 1449.35 -360.135 1442.79 -353.396 1439.07L241.464 1116.54C252.556 1110.5 266.876 1113.84 273.475 1123.99L627.134 1667.02C629.521 1670.62 630.644 1674.73 630.363 1678.84C630.082 1686.04 625.73 1692.59 618.991 1696.32L24.1304 2018.85C13.0391 2024.89 -1.28134 2021.54 -7.87997 2011.39L-361.399 1468.36C-363.786 1464.76 -364.909 1460.78 -364.768 1456.54ZM627.134 1678.58C627.275 1674.99 626.292 1671.52 624.326 1668.43L270.807 1125.4C265.051 1116.67 252.696 1113.84 243.149 1118.98L-351.711 1441.64C-357.608 1444.85 -361.258 1450.5 -361.539 1456.67C-361.68 1460.27 -360.697 1463.74 -358.731 1466.82L-5.07205 2009.85C0.684204 2018.59 13.0391 2021.42 22.5861 2016.28L617.306 1693.62C623.203 1690.54 626.853 1684.88 627.134 1678.58Z" fill="#DADADA"/>
<path d="M-370.384 1421.46C-370.103 1414.27 -365.47 1407.58 -358.451 1404.11L231.075 1112.3C242.026 1106.9 255.925 1110.63 261.822 1120.65L581.646 1658.8C583.611 1662.14 584.594 1665.86 584.313 1669.59C584.032 1676.79 579.399 1683.47 572.379 1686.94L-17.0059 1978.76C-27.9568 1984.15 -41.856 1980.43 -47.7527 1970.4L-367.576 1432.26C-369.542 1428.91 -370.525 1425.19 -370.384 1421.46ZM581.224 1669.46C581.365 1666.25 580.522 1663.04 578.838 1660.21L259.014 1122.06C253.819 1113.45 242.026 1110.24 232.479 1114.87L-356.906 1406.68C-362.943 1409.64 -366.874 1415.29 -367.155 1421.59C-367.296 1424.8 -366.453 1428.01 -364.768 1430.84L-44.9448 1968.99C-39.7501 1977.6 -27.9568 1980.81 -18.4098 1976.19L571.116 1684.37C577.153 1681.41 580.944 1675.76 581.224 1669.46Z" fill="#DADADA"/>
<path d="M-376 1386.25C-375.579 1378.93 -370.946 1372.25 -363.645 1369.03L220.686 1108.06C231.637 1103.17 244.834 1107.28 250.169 1117.31L536.157 1650.7C537.842 1653.79 538.544 1657.13 538.403 1660.47C537.982 1667.92 533.349 1674.47 526.048 1677.69L-58.1421 1938.66C-69.093 1943.55 -82.2903 1939.44 -87.6254 1929.41L-373.754 1396.02C-375.439 1392.94 -376.141 1389.59 -376 1386.25ZM535.315 1660.34C535.455 1657.51 534.753 1654.56 533.349 1651.99L247.361 1118.59C242.728 1110.11 231.496 1106.51 222.09 1110.63L-362.241 1371.6C-368.419 1374.43 -372.49 1380.09 -372.771 1386.38C-372.911 1389.21 -372.209 1392.16 -370.805 1394.73L-84.8174 1928.13C-80.1844 1936.61 -68.9526 1940.21 -59.5461 1936.09L524.785 1675.12C530.962 1672.29 535.034 1666.63 535.315 1660.34Z" fill="#DADADA"/>
</g>
</g>
<g opacity="0.15" clip-path="url(#clip2_675_514)">
<g opacity="0.8">
<path d="M2032.1 -115.587C2034.18 -109.282 2034.17 -102.324 2032.14 -95.6763L1711.17 970.61C1708.4 979.944 1701.89 987.877 1692.91 993.13C1683.88 998.265 1673.58 1000 1663.75 997.953L538.872 761.716C526.164 759.01 516.393 750.517 512.585 738.845C510.504 732.54 510.516 725.581 512.544 718.934L833.514 -347.352C836.284 -356.686 842.796 -364.62 851.778 -369.872C860.804 -375.008 871.109 -376.746 880.94 -374.695L2005.69 -138.41C2018.39 -135.704 2028.29 -127.26 2032.1 -115.587ZM515.572 737.854C519.028 748.589 528.107 756.406 539.698 758.864L1664.57 995.101C1673.63 997.041 1683.12 995.475 1691.43 990.745C1699.73 986.016 1705.6 978.723 1708.21 970.119L2029.18 -96.1668C2030.96 -102.318 2030.93 -108.595 2029.16 -114.479C2025.7 -125.215 2016.62 -133.031 2005.03 -135.49L880.158 -371.726C871.099 -373.666 861.606 -372.1 853.304 -367.371C845.002 -362.641 839.126 -355.348 836.519 -346.744L515.549 719.542C513.6 725.624 513.668 732.018 515.572 737.854Z" fill="#DADADA"/>
<path d="M2048.87 -85.3897C2050.95 -79.0848 2050.94 -72.1264 2048.74 -65.5479L1721.93 970.842C1719.07 979.941 1712.64 987.71 1703.83 992.632C1695.01 997.554 1684.92 999.079 1675.34 996.932L582.991 753.538C570.839 750.756 561.456 742.519 557.824 731.314C555.743 725.01 555.755 718.051 557.955 711.473L884.77 -324.917C890.694 -343.73 911.602 -355.343 931.352 -351.007L2023.75 -107.496C2035.86 -104.831 2045.24 -96.5937 2048.87 -85.3897ZM560.812 730.324C564.091 740.591 572.781 748.152 583.945 750.638L1676.34 994.149C1685.1 996.068 1694.38 994.715 1702.47 990.199C1710.56 985.683 1716.53 978.624 1719.09 970.303L2045.91 -66.0866C2047.86 -72.1691 2047.83 -78.4455 2045.93 -84.2818C2042.65 -94.5487 2033.96 -102.111 2022.8 -104.596L930.442 -347.99C912.28 -351.987 893.076 -341.283 887.691 -324.144L560.876 712.246C558.883 718.211 558.907 724.487 560.812 730.324Z" fill="#DADADA"/>
<path d="M2065.82 -55.123C2067.9 -48.8181 2067.84 -41.9768 2065.68 -35.2813L1733.02 971.212C1727.01 989.391 1706.4 1000.62 1687.29 996.048L627.281 745.429C615.601 742.736 606.562 734.637 603.106 723.902C601.026 717.597 601.081 710.755 603.237 704.06L935.897 -302.433C938.844 -311.299 945.232 -318.785 953.878 -323.376C962.481 -328.085 972.361 -329.396 981.764 -327.318L2041.77 -76.6982C2053.32 -73.9578 2062.36 -65.8584 2065.82 -55.123ZM606.094 722.911C609.197 732.709 617.544 740.133 628.107 742.577L1688.11 993.197C1705.76 997.387 1724.54 987.109 1730.1 970.439L2062.76 -36.0543C2064.71 -42.1368 2064.86 -48.3442 2062.96 -54.1805C2059.85 -63.9788 2051.51 -71.4026 2040.94 -73.8464L980.938 -324.466C972.435 -326.482 963.411 -325.225 955.404 -320.874C947.526 -316.572 941.601 -309.796 938.946 -301.709L606.286 704.785C604.294 710.75 604.19 717.075 606.094 722.911Z" fill="#DADADA"/>
<path d="M2082.71 -24.9736C2084.79 -18.6688 2084.61 -11.7794 2082.41 -5.2009L1744.03 971.348C1741.13 979.931 1734.78 987.135 1726.22 991.561C1717.7 996.104 1708.03 997.202 1699.01 994.979L671.483 737.085C660.359 734.317 651.708 726.473 648.429 716.206C646.348 709.901 646.532 703.012 648.732 696.434L987.109 -280.115C993.302 -297.825 1013.41 -308.467 1032.13 -303.746L2059.66 -45.8526C2070.83 -42.9676 2079.43 -35.2405 2082.71 -24.9736ZM651.333 715.381C654.432 724.78 662.218 731.879 672.397 734.468L1699.92 992.361C1708.17 994.473 1716.94 993.313 1724.78 989.293C1732.57 985.156 1738.29 978.593 1741.03 970.74L2079.49 -5.9739C2081.61 -11.9875 2081.76 -18.1948 2079.85 -24.0311C2076.76 -33.4298 2068.97 -40.5296 2058.79 -43.1179L1031.26 -301.012C1014.17 -305.277 995.768 -295.544 990.158 -279.391L651.781 697.158C649.577 703.337 649.557 709.496 651.333 715.381Z" fill="#DADADA"/>
<path d="M2099.66 5.29294C2101.74 11.5978 2101.55 18.4872 2099.18 24.9967L1754.96 971.649C1751.97 979.998 1745.66 986.919 1737.31 991.132C1728.96 995.344 1719.59 996.463 1710.82 994.144L715.644 729.024C705.077 726.181 696.858 718.709 693.711 708.793C691.631 702.489 691.814 695.599 694.186 689.09L1038.41 -257.563C1041.4 -265.912 1047.71 -272.833 1056.06 -277.045C1064.41 -281.258 1073.78 -282.376 1082.54 -280.058L2077.72 -14.9379C2088.29 -12.0946 2096.51 -4.62249 2099.66 5.29294ZM696.699 707.803C699.622 716.733 707.063 723.695 716.643 726.241L1711.82 991.361C1719.77 993.452 1728.33 992.505 1735.95 988.699C1743.54 984.775 1749.21 978.495 1752.04 970.876L2096.26 24.2237C2098.43 18.3273 2098.53 12.0028 2096.67 6.28364C2093.75 -2.64651 2086.3 -9.6083 2076.73 -12.155L1081.55 -277.275C1073.6 -279.366 1065.04 -278.419 1057.42 -274.613C1049.83 -270.689 1044.16 -264.409 1041.33 -256.79L697.107 689.863C694.943 695.759 694.795 701.966 696.699 707.803Z" fill="#DADADA"/>
<path d="M2116.56 35.4424C2118.64 41.7473 2118.45 48.6367 2115.91 55.0772L1765.84 971.834C1759.42 988.558 1740.04 997.995 1722.55 993.075L759.847 720.681C749.879 717.879 742.005 710.545 738.906 701.146C736.826 694.841 737.009 687.952 739.509 681.394L1089.58 -235.362C1092.66 -243.477 1098.93 -250.115 1107.07 -254.114C1115.2 -258.113 1124.36 -259.018 1132.87 -256.603L2095.74 15.8597C2105.76 18.7786 2113.59 25.9955 2116.56 35.4424ZM741.938 700.273C744.728 708.851 751.738 715.441 760.889 718.015L1723.59 990.409C1739.45 994.874 1757.21 986.18 1762.92 971.061L2112.99 54.3042C2115.28 48.3596 2115.43 42.1522 2113.57 36.4331C2110.78 27.8543 2103.77 21.2647 2094.62 18.6907L1131.91 -253.703C1124.22 -255.891 1115.92 -255.04 1108.38 -251.399C1100.97 -247.806 1095.25 -241.643 1092.46 -234.307L742.39 682.45C740.226 688.346 740.078 694.554 741.938 700.273Z" fill="#DADADA"/>
<path d="M2133.5 65.709C2135.58 72.0139 2135.27 78.9515 2132.72 85.392L1776.81 972.252C1773.64 980.132 1767.54 986.44 1759.49 990.274C1751.43 994.108 1742.49 994.799 1734.23 992.288L804.053 712.737C794.341 709.839 787.199 702.898 784.233 693.851C782.108 687.429 782.464 680.608 785.008 674.168L1140.92 -212.692C1147.39 -228.9 1166.52 -237.841 1183.37 -232.68L2113.68 46.8227C2123.39 49.7208 2130.62 56.4965 2133.5 65.709ZM787.221 692.86C789.879 701.087 796.456 707.305 805.179 709.906L1735.4 989.574C1742.84 991.858 1750.93 991.221 1758.22 987.676C1765.55 984.248 1771.1 978.416 1773.98 971.314L2129.89 84.4537C2132.22 78.6263 2132.5 72.3708 2130.64 66.6516C2127.98 58.4243 2121.4 52.207 2112.68 49.6056L1182.45 -230.062C1167.11 -234.72 1149.77 -226.454 1144.01 -211.85L788.101 675.01C785.637 680.885 785.316 687.024 787.221 692.86Z" fill="#DADADA"/>
<path d="M2150.4 95.8583C2152.52 102.28 2152.12 108.984 2149.32 115.52L1787.57 972.484C1784.43 980.082 1778.25 986.156 1770.4 989.776C1762.52 993.279 1753.83 993.874 1745.88 991.384L848.042 704.607C838.887 701.633 832.049 695.113 829.343 686.369C827.218 679.947 827.618 673.243 830.418 666.706L1192.17 -190.257C1195.31 -197.855 1201.49 -203.929 1209.34 -207.549C1217.22 -211.052 1225.91 -211.648 1233.86 -209.157L2131.7 77.62C2140.85 80.5936 2147.74 87.2314 2150.4 95.8583ZM832.459 685.33C834.985 693.206 841.174 699.168 849.469 701.797L1747.17 988.622C1754.31 990.885 1762.19 990.461 1769.3 987.247C1776.42 984.033 1781.93 978.482 1784.77 971.663L2146.53 114.699C2148.99 108.824 2149.31 102.685 2147.45 96.9662C2144.93 89.0903 2138.74 83.128 2130.44 80.4992L1232.61 -206.278C1225.48 -208.541 1217.6 -208.117 1210.48 -204.903C1203.36 -201.689 1197.85 -196.138 1195.01 -189.319L833.255 667.645C830.919 673.472 830.599 679.611 832.459 685.33Z" fill="#DADADA"/>
<path d="M2167.47 126.077C2169.55 132.382 2169.11 139.367 2166.22 145.67L1798.75 972.689C1795.53 980.053 1789.38 985.844 1781.75 989.251C1774.07 992.54 1765.6 992.922 1757.9 990.335L892.545 696.284C883.989 693.352 877.496 686.97 874.838 678.742C872.757 672.438 873.197 665.452 876.085 659.149L1243.56 -167.87C1246.78 -175.233 1252.93 -181.025 1260.56 -184.432C1268.23 -187.721 1276.71 -188.103 1284.41 -185.516L2149.76 108.535C2158.32 111.467 2164.81 117.85 2167.47 126.077ZM877.698 677.8C880.047 685.207 885.848 690.914 893.715 693.57L1759.12 987.738C1765.99 990.098 1773.62 989.771 1780.65 986.722C1787.56 983.721 1793.03 978.453 1795.96 971.868L2163.43 144.849C2165.94 139.09 2166.38 132.904 2164.52 127.185C2162.18 119.777 2156.37 114.07 2148.51 111.414L1283.15 -182.637C1276.27 -184.996 1268.65 -184.669 1261.62 -181.62C1254.71 -178.619 1249.24 -173.352 1246.31 -166.767L878.838 660.253C876.286 665.894 875.882 672.198 877.698 677.8Z" fill="#DADADA"/>
<path d="M2184.37 156.226C2186.45 162.531 2185.88 169.565 2182.99 175.868L1809.67 972.991C1806.37 980.12 1800.43 985.698 1792.84 988.822C1785.25 991.946 1777.03 992.232 1769.71 989.5L936.707 688.223C928.579 685.264 922.602 679.088 919.993 671.378C917.912 665.073 918.48 658.039 921.368 651.736L1294.69 -145.387C1301.47 -159.976 1319.47 -167.284 1334.69 -161.779L2167.65 139.381C2175.78 142.34 2181.89 148.467 2184.37 156.226ZM922.981 670.387C925.198 677.443 930.738 682.847 938.005 685.461L1770.89 986.786C1777.51 989.242 1784.87 989.011 1791.7 986.176C1798.52 983.34 1803.82 978.403 1806.84 972.052L2180.16 174.929C2182.84 169.24 2183.28 163.053 2181.42 157.334C2179.21 150.278 2173.67 144.874 2166.53 142.212L1333.52 -159.065C1319.8 -164.066 1303.77 -157.363 1297.57 -144.331L924.249 652.792C921.568 658.481 921.121 664.668 922.981 670.387Z" fill="#DADADA"/>
<path d="M2201.31 186.493C2203.39 192.798 2202.82 199.832 2199.63 206.113L1820.47 973.34C1813.51 987.46 1795.89 994.225 1781.23 988.644L980.697 680.093C973.169 677.176 967.453 671.303 965.103 663.896C963.023 657.591 963.59 650.557 966.778 644.275L1345.94 -122.952C1352.9 -137.072 1370.52 -143.836 1385.19 -138.256L2185.72 170.295C2193.24 173.213 2198.96 179.085 2201.31 186.493ZM968.219 662.857C970.388 669.396 975.456 674.71 982.295 677.352L1782.7 985.951C1795.86 991.028 1811.51 984.869 1817.89 972.305L2197.05 205.079C2199.78 199.506 2200.35 193.272 2198.49 187.552C2196.33 181.013 2191.26 175.699 2184.42 173.057L1383.89 -135.494C1370.73 -140.57 1355.07 -134.411 1348.82 -121.896L969.66 645.331C966.807 650.951 966.359 657.138 968.219 662.857Z" fill="#DADADA"/>
<path d="M2218.34 216.594C2220.46 223.016 2219.72 229.981 2216.49 236.145L1831.53 973.593C1824.47 987.08 1807.28 993.417 1793.13 987.644L1025.07 671.819C1017.97 668.874 1012.64 663.256 1010.47 656.318C1008.35 649.896 1009.08 642.931 1012.32 636.766L1397.32 -100.565C1404.38 -114.051 1421.57 -120.388 1435.73 -114.615L2203.78 201.21C2210.71 204.086 2216.04 209.703 2218.34 216.594ZM1013.33 655.375C1015.37 661.563 1020.05 666.622 1026.41 669.174L1794.47 984.999C1807.07 990.151 1822.35 984.536 1828.77 972.49L2213.74 235.042C2216.59 229.421 2217.21 223.304 2215.35 217.585C2213.31 211.397 2208.63 206.338 2202.27 203.786L1434.21 -112.039C1421.61 -117.191 1406.33 -111.577 1399.91 -99.53L1014.9 637.801C1012.09 643.538 1011.51 649.773 1013.33 655.375Z" fill="#DADADA"/>
<path d="M2235.28 246.86C2237.4 253.282 2236.67 260.247 2233.18 266.508L1842.45 973.894C1838.96 980.155 1833.19 985.003 1826.06 987.418C1818.93 989.833 1811.39 989.595 1804.89 986.691L1069.19 663.641C1062.56 660.785 1057.67 655.54 1055.58 648.836C1053.46 642.414 1054.2 635.449 1057.68 629.188L1448.58 -78.1295C1455.81 -91.1472 1472.62 -96.9405 1486.14 -90.9266L2221.67 232.055C2228.34 235.028 2233.2 240.156 2235.28 246.86ZM1058.61 647.962C1060.52 653.798 1064.76 658.485 1070.7 661.065L1806.41 984.116C1812.22 986.743 1818.86 986.918 1825.22 984.793C1831.58 982.667 1836.67 978.342 1839.83 972.743L2230.51 265.239C2233.53 259.688 2234.28 253.522 2232.42 247.803C2230.52 241.967 2226.27 237.28 2220.33 234.7L1484.62 -88.3506C1472.57 -93.5785 1457.68 -88.5077 1451.21 -76.9777L1060.4 630.574C1057.33 636.008 1056.75 642.243 1058.61 647.962Z" fill="#DADADA"/>
<path d="M2252.31 276.962C2254.43 283.384 2253.56 290.397 2249.9 296.589L1853.38 974.196C1846.1 986.697 1829.62 991.829 1816.66 985.739L1113.43 655.414C1107.24 652.532 1102.86 647.493 1100.82 641.306C1098.69 634.884 1099.56 627.87 1103.22 621.678L1499.79 -55.8113C1507.07 -68.3125 1523.55 -73.4445 1536.51 -67.355L2239.74 262.97C2245.89 265.736 2250.27 270.774 2252.31 276.962ZM1103.72 640.48C1105.49 645.965 1109.48 650.349 1114.87 653.004L1818.18 983.163C1829.72 988.584 1844.19 983.94 1850.71 972.927L2247.23 295.32C2250.43 289.837 2251.18 283.671 2249.32 277.952C2247.55 272.467 2243.56 268.084 2238.18 265.429L1534.95 -64.8962C1523.41 -70.3167 1508.94 -65.673 1502.42 -54.6596L1105.89 622.947C1102.61 628.595 1101.86 634.761 1103.72 640.48Z" fill="#DADADA"/>
<path d="M2269.38 307.18C2271.5 313.602 2270.55 320.78 2266.67 326.786L1864.3 974.497C1860.64 980.289 1854.95 984.572 1848.24 986.56C1841.54 988.548 1834.42 987.883 1828.48 984.904L1157.64 647.47C1152.04 644.629 1147.92 639.894 1146.02 634.058C1143.89 627.636 1144.84 620.458 1148.72 614.452L1551.05 -33.3761C1558.54 -45.2915 1574.6 -49.9965 1586.87 -43.7833L2257.75 293.768C2263.35 296.609 2267.47 301.344 2269.38 307.18ZM1148.96 632.95C1150.6 638.084 1154.2 642.212 1159.24 644.729L1829.99 982.328C1835.25 985.031 1841.55 985.468 1847.48 983.769C1853.42 982.07 1858.56 978.263 1861.76 973.18L2264.13 325.469C2267.37 320.104 2268.38 313.842 2266.52 308.123C2264.88 302.989 2261.28 298.861 2256.24 296.344L1585.4 -41.0902C1574.42 -46.5862 1560.2 -42.4384 1553.63 -31.9418L1151.26 615.769C1147.98 621.017 1147.15 627.348 1148.96 632.95Z" fill="#DADADA"/>
<path d="M2286.4 337.281C2288.53 343.703 2287.45 350.93 2283.45 356.984L1875.23 974.798C1871.61 980.308 1865.95 984.309 1859.29 986.014C1852.62 987.72 1845.93 987.028 1840.07 983.883L1201.71 639.175C1196.59 636.424 1192.86 631.944 1191 626.624C1188.88 620.202 1189.96 612.976 1193.96 606.922L1602.3 -10.9408C1609.85 -22.3394 1625.52 -26.5003 1637.41 -20.1427L2275.82 324.682C2280.95 327.434 2284.68 331.914 2286.4 337.281ZM1194.12 625.586C1195.62 630.368 1198.96 634.193 1203.53 636.62L1841.76 981.376C1846.72 984.059 1852.81 984.709 1858.53 983.223C1864.38 981.69 1869.36 978.213 1872.47 973.295L2280.86 355.55C2284.27 350.253 2285.28 343.991 2283.42 338.272C2281.95 333.607 2278.57 329.665 2274 327.238L1635.64 -17.4704C1625.22 -23.0419 1611.38 -19.4382 1604.76 -9.45839L1196.55 608.356C1193.26 613.604 1192.26 619.866 1194.12 625.586Z" fill="#DADADA"/>
<path d="M2303.48 367.5C2305.64 374.039 2304.39 381.196 2300.22 387.182L1886.16 975.1C1878.43 986.03 1863.09 989.529 1851.89 983.048L1246 631.066C1241.35 628.404 1237.83 624.111 1236.28 619.212C1234.11 612.672 1235.37 605.515 1239.54 599.53L1653.56 11.4944C1661.28 0.564307 1676.62 -2.93533 1687.83 3.54595L2293.71 355.528C2298.41 358.307 2301.88 362.483 2303.48 367.5ZM1239.23 618.104C1240.56 622.417 1243.72 626.173 1247.69 628.559L1853.57 980.541C1863.44 986.188 1876.9 983.129 1883.57 973.665L2297.63 385.747C2301.34 380.472 2302.35 374.21 2300.49 368.49C2299.16 364.177 2295.99 360.421 2292.02 358.035L1686.14 6.05292C1676.27 0.405843 1662.81 3.46548 1656.14 12.9286L1242.08 600.847C1238.37 606.122 1237.37 612.385 1239.23 618.104Z" fill="#DADADA"/>
<path d="M2320.63 397.553C2322.8 404.092 2321.42 411.298 2316.94 417.262L1897.04 975.284C1889.22 985.58 1874.31 988.653 1863.61 981.979L1290.08 622.771C1285.85 620.082 1282.81 616.277 1281.35 611.612C1279.18 605.073 1280.56 597.868 1285.04 591.903L1704.81 33.9296C1712.63 23.6334 1727.54 20.5606 1738.24 27.2346L2311.77 386.443C2316 389.132 2319.08 393.053 2320.63 397.553ZM1284.34 610.622C1285.71 614.653 1288.27 617.968 1291.94 620.333L1865.47 979.541C1874.83 985.38 1887.87 982.748 1894.54 973.684L2314.49 415.779C2318.37 410.573 2319.55 404.38 2317.64 398.543C2316.27 394.512 2313.71 391.197 2310.04 388.833L1736.51 29.6245C1727.15 23.7848 1714.11 26.4174 1707.32 35.5291L1287.41 593.551C1283.61 598.592 1282.48 604.903 1284.34 610.622Z" fill="#DADADA"/>
<path d="M2337.7 427.771C2339.87 434.31 2338.28 441.729 2333.71 447.459L1907.96 975.585C1900.1 985.365 1885.39 987.824 1875.38 981.027L1334.32 614.544C1330.57 611.945 1327.75 608.327 1326.46 604.131C1324.29 597.591 1325.88 590.172 1330.45 584.442L1756.07 56.3648C1763.93 46.5853 1778.64 44.1257 1788.65 50.9234L2329.84 417.357C2333.59 419.956 2336.41 423.575 2337.7 427.771ZM1329.32 603.188C1330.56 606.868 1332.91 609.997 1336.23 612.223L1877.29 978.706C1886.09 984.621 1898.74 982.532 1905.59 973.937L2331.21 445.86C2335.19 440.888 2336.57 434.481 2334.71 428.762C2333.47 425.082 2331.13 421.953 2327.81 419.726L1786.75 53.2442C1777.95 47.329 1765.29 49.4175 1758.44 58.0125L1332.82 586.09C1328.85 591.062 1327.46 597.469 1329.32 603.188Z" fill="#DADADA"/>
<path d="M2354.9 457.941C2357.11 464.598 2355.39 472.065 2350.53 477.774L1918.89 975.886C1910.85 985.197 1896.65 987.065 1887.15 980.074L1378.44 606.366C1375.03 603.905 1372.6 600.542 1371.44 596.697C1369.23 590.041 1370.95 582.573 1375.81 576.864L1807.45 78.7519C1815.49 69.441 1829.69 67.5736 1839.19 74.564L2347.77 448.32C2351.18 450.781 2353.57 454.028 2354.9 457.941ZM1374.47 595.823C1375.58 599.152 1377.67 601.977 1380.52 604.114L1889.1 977.871C1897.34 983.861 1909.58 982.2 1916.52 974.239L2348.11 476.009C2352.38 471.058 2353.77 464.651 2351.91 458.932C2350.81 455.604 2348.72 452.778 2345.87 450.641L1837.16 76.933C1828.91 70.9422 1816.68 72.6038 1809.74 80.5648L1378.28 578.746C1373.96 583.581 1372.57 589.987 1374.47 595.823Z" fill="#DADADA"/>
<path d="M2372.05 487.994C2374.27 494.651 2372.34 502.332 2367.13 507.903L1929.82 976.188C1921.68 984.865 1907.74 986.236 1898.92 979.122L1422.73 598.257C1419.79 595.886 1417.62 592.826 1416.6 589.332C1414.38 582.676 1416.32 574.995 1421.53 569.424L1858.71 101.187C1866.84 92.5102 1880.79 91.1388 1889.6 98.2528L2365.79 479.118C2368.73 481.489 2370.9 484.549 2372.05 487.994ZM1419.46 588.39C1420.43 591.366 1422.3 594.006 1424.81 596.005L1901 976.87C1908.69 982.937 1920.54 981.819 1927.66 974.327L2364.84 506.09C2369.33 501.324 2370.97 494.821 2369.07 488.985C2368.09 486.008 2366.22 483.369 2363.72 481.37L1887.53 100.505C1879.84 94.4384 1867.99 95.5559 1860.87 103.048L1423.56 571.333C1419.07 576.099 1417.55 582.553 1419.46 588.39Z" fill="#DADADA"/>
<path d="M2389.25 518.164C2391.38 524.986 2389.45 532.667 2383.9 538.1L1940.74 976.489C1932.43 984.697 1918.99 985.476 1910.69 978.17L1466.98 590.031C1464.38 587.797 1462.6 584.992 1461.58 581.898C1459.41 574.96 1461.38 567.396 1466.94 561.963L1909.96 123.622C1918.27 115.414 1931.71 114.635 1940.02 121.941L2383.86 510.032C2386.45 512.266 2388.24 515.071 2389.25 518.164ZM1464.44 580.956C1465.28 583.581 1466.94 586.035 1469.1 587.896L1912.81 976.035C1919.94 982.177 1931.42 981.603 1938.58 974.628L2381.74 536.239C2386.4 531.543 2388.17 524.991 2386.27 519.155C2385.42 516.53 2383.77 514.076 2381.61 512.215L1937.9 124.076C1930.76 117.934 1919.29 118.508 1912.13 125.483L1468.97 563.872C1464.31 568.568 1462.54 575.12 1464.44 580.956Z" fill="#DADADA"/>
</g>
</g>
<g opacity="0.09" clip-path="url(#clip3_675_514)">
<g opacity="0.8">
<path d="M2878.69 4686.54C2877.99 4675.97 2871.69 4665.6 2860.83 4656.82L1130.12 3246.8C1115.06 3234.44 1092.31 3226.26 1066.05 3223.47C1039.79 3220.88 1013.53 3224.07 991.818 3232.64L-1490.63 4216.27C-1518.64 4227.44 -1534.4 4245.59 -1533 4265.13C-1532.3 4275.7 -1526 4286.07 -1515.14 4294.85L215.57 5704.87C230.626 5717.23 253.385 5725.41 279.645 5728.2C305.905 5730.8 332.165 5727.6 353.873 5719.03L2835.97 4735.4C2863.99 4724.23 2880.09 4706.09 2878.69 4686.54ZM-1524.95 4264.93C-1526.35 4246.98 -1511.64 4230.23 -1486.08 4220.06L996.369 3236.43C1016.33 3228.45 1040.49 3225.46 1064.65 3227.86C1088.8 3230.25 1109.46 3237.83 1123.47 3249.2L2854.18 4659.22C2863.99 4667.4 2869.59 4676.77 2870.64 4686.54C2872.04 4704.49 2857.33 4721.24 2831.77 4731.41L349.322 5715.04C329.364 5723.02 305.205 5726.01 281.045 5723.62C256.886 5721.22 236.228 5713.64 222.222 5702.28L-1508.49 4292.25C-1518.64 4284.28 -1524.25 4274.7 -1524.95 4264.93Z" fill="#DADADA"/>
<path d="M2891.65 4632.09C2890.95 4621.52 2884.64 4611.15 2873.44 4602.58L1155.68 3240.42C1140.62 3228.45 1118.22 3220.48 1092.66 3218.08C1067.1 3215.69 1041.54 3219.08 1020.53 3227.66L-1377.54 4203.7C-1404.15 4214.67 -1419.21 4232.22 -1417.81 4250.97C-1417.11 4261.54 -1410.8 4271.91 -1399.6 4280.49L318.159 5642.64C349.322 5667.37 409.895 5672.96 453.311 5655.41L2851.38 4679.16C2877.99 4668.39 2893.05 4650.84 2891.65 4632.09ZM-1409.75 4250.77C-1411.15 4233.62 -1397.15 4217.46 -1372.64 4207.49L1025.43 3231.25C1044.69 3223.47 1068.15 3220.28 1091.61 3222.47C1115.07 3224.67 1135.72 3231.84 1149.38 3242.81L2867.14 4604.97C2877.29 4612.95 2882.89 4622.32 2883.59 4632.09C2884.99 4649.25 2870.99 4665.4 2846.48 4675.37L448.409 5651.42C408.494 5667.57 352.823 5662.39 324.462 5639.85L-1393.3 4277.69C-1403.45 4269.92 -1409.05 4260.54 -1409.75 4250.77Z" fill="#DADADA"/>
<path d="M2904.95 4577.45C2904.25 4566.88 2897.95 4556.71 2886.74 4547.93L1181.94 3233.64C1151.13 3209.91 1091.61 3204.72 1049.94 3222.27L-1264.1 4190.94C-1289.66 4201.51 -1304.01 4218.66 -1302.61 4236.61C-1301.91 4247.18 -1295.61 4257.35 -1284.4 4266.13L420.399 5580.42C435.455 5591.99 457.513 5599.57 482.373 5601.56C507.232 5603.75 532.092 5600.16 552.75 5591.79L2866.79 4623.12C2892 4612.55 2906.35 4595.4 2904.95 4577.45ZM-1294.56 4236.41C-1295.96 4220.06 -1282.65 4204.3 -1259.55 4194.73L1054.49 3226.06C1093.01 3209.91 1147.28 3214.69 1175.64 3236.43L2880.44 4550.72C2890.6 4558.7 2896.55 4567.88 2897.25 4577.65C2898.65 4594 2885.34 4609.76 2862.23 4619.33L548.198 5588C529.641 5595.78 506.882 5598.97 483.773 5596.97C461.014 5594.98 440.706 5588.2 427.051 5577.63L-1277.75 4263.33C-1287.91 4255.56 -1293.86 4246.18 -1294.56 4236.41Z" fill="#DADADA"/>
<path d="M2918.26 4523C2917.56 4512.43 2910.9 4502.26 2899.7 4493.69L1208.2 3227.26C1193.5 3216.09 1171.79 3208.91 1147.28 3207.11C1122.77 3205.12 1098.61 3208.91 1079 3217.29L-1150.65 4178.57C-1174.81 4188.94 -1188.47 4205.5 -1187.07 4222.65C-1186.37 4233.22 -1179.71 4243.39 -1168.51 4251.97L522.988 5518.39C553.8 5541.33 611.572 5545.92 652.188 5528.37L2881.84 4567.08C2906 4556.51 2919.66 4540.15 2918.26 4523ZM-1179.36 4222.25C-1180.42 4206.5 -1168.16 4191.54 -1146.1 4181.96L1083.55 3220.68C1101.41 3212.9 1123.47 3209.71 1145.88 3211.3C1168.29 3213.1 1187.89 3219.68 1201.55 3229.85L2893.4 4496.48C2903.9 4504.26 2909.85 4513.43 2910.55 4523.2C2911.6 4538.96 2899.35 4553.92 2877.29 4563.49L647.636 5524.78C610.521 5540.73 557.651 5536.54 529.641 5515.6L-1161.86 4249.17C-1172.71 4241.2 -1178.31 4232.02 -1179.36 4222.25Z" fill="#DADADA"/>
<path d="M2931.56 4468.36C2930.86 4457.79 2924.21 4447.61 2912.65 4439.24L1234.11 3220.68C1219.4 3209.91 1198.05 3203.13 1174.24 3201.53C1150.43 3199.93 1126.97 3203.52 1108.06 3211.9L-1037.56 4165.81C-1060.32 4175.98 -1073.27 4191.74 -1071.87 4208.29C-1071.17 4218.86 -1064.52 4229.03 -1052.97 4237.41L625.577 5455.97C640.283 5466.74 661.641 5473.52 685.45 5475.12C709.259 5476.71 732.718 5473.12 751.625 5464.75L2897.25 4510.84C2920.01 4500.67 2932.96 4484.91 2931.56 4468.36ZM-1063.82 4208.09C-1064.87 4193.13 -1053.32 4178.57 -1032.66 4169.4L1112.96 3215.49C1130.12 3207.91 1151.48 3204.52 1173.19 3205.92C1194.9 3207.51 1214.15 3213.7 1227.81 3223.47L2906.35 4442.03C2916.86 4449.61 2922.81 4458.98 2923.51 4468.56C2924.56 4483.51 2913 4498.07 2892.35 4507.25L746.724 5461.16C729.567 5468.73 708.209 5472.12 686.5 5470.73C664.792 5469.13 645.535 5462.95 631.879 5453.18L-1046.66 4234.62C-1057.17 4227.04 -1063.12 4217.86 -1063.82 4208.09Z" fill="#DADADA"/>
<path d="M2944.87 4413.91C2944.17 4403.34 2937.51 4393.17 2925.61 4384.99L1260.02 3214.29C1229.56 3192.95 1174.59 3189.76 1137.12 3206.92L-924.117 4153.44C-945.475 4163.22 -957.729 4178.57 -956.679 4194.33C-955.979 4204.9 -949.326 4215.07 -937.422 4223.45L728.167 5394.14C742.872 5404.52 763.88 5410.9 786.989 5412.29C810.098 5413.69 832.857 5409.9 851.064 5401.52L2912.65 4454.79C2934.01 4444.82 2946.27 4429.67 2944.87 4413.91ZM-948.626 4193.93C-949.677 4179.57 -938.823 4165.81 -919.215 4156.84L1142.03 3210.31C1175.99 3194.75 1226.41 3197.74 1253.72 3217.09L2919.31 4387.78C2930.16 4395.36 2936.11 4404.54 2936.81 4414.11C2937.86 4428.47 2927.01 4442.23 2907.4 4451.2L846.162 5397.73C829.705 5405.31 809.047 5408.7 787.689 5407.51C766.681 5406.31 747.424 5400.33 734.119 5390.95L-931.47 4220.26C-941.974 4212.68 -947.926 4203.5 -948.626 4193.93Z" fill="#DADADA"/>
<path d="M2958.17 4359.26C2957.47 4348.69 2950.47 4338.52 2938.56 4330.35L1285.93 3207.51C1271.22 3197.54 1250.92 3191.56 1228.16 3190.36C1205.4 3189.17 1183.34 3193.15 1165.83 3201.53L-811.023 4140.48C-831.681 4150.25 -842.535 4164.61 -841.485 4179.77C-840.785 4190.54 -833.782 4200.51 -821.878 4208.69L830.756 5331.52C860.867 5352.06 914.788 5354.66 950.501 5337.5L2927.71 4398.55C2948.37 4388.78 2959.57 4374.62 2958.17 4359.26ZM-833.432 4179.57C-834.483 4165.81 -824.329 4152.85 -805.771 4144.07L1171.09 3204.92C1186.84 3197.34 1206.8 3193.75 1227.46 3194.95C1248.12 3195.95 1266.67 3201.53 1279.98 3210.5L2932.61 4333.34C2943.47 4340.72 2949.77 4349.89 2950.47 4359.46C2951.52 4373.22 2941.36 4386.19 2922.81 4394.96L945.95 5334.11C913.387 5349.67 864.368 5347.08 837.408 5328.53L-815.225 4205.7C-826.429 4198.32 -832.732 4189.34 -833.432 4179.57Z" fill="#DADADA"/>
<path d="M2971.48 4304.82C2970.78 4294.05 2963.77 4284.28 2951.17 4276.1L1311.49 3201.13C1297.13 3191.56 1276.83 3185.97 1254.77 3184.98C1232.71 3184.18 1211.35 3188.17 1194.55 3196.34L-698.281 4127.92C-717.538 4137.49 -728.042 4151.05 -726.641 4165.61C-725.941 4176.38 -718.938 4186.15 -706.333 4194.33L933.345 5269.3C947.701 5278.87 968.009 5284.45 990.067 5285.45C1012.13 5286.25 1033.48 5282.26 1050.29 5274.08L2943.12 4342.51C2962.37 4332.94 2972.88 4319.18 2971.48 4304.82ZM-718.238 4165.41C-719.288 4152.25 -709.835 4139.88 -692.328 4131.31L1200.15 3199.74C1215.2 3192.36 1234.46 3188.57 1254.42 3189.36C1274.38 3190.16 1292.58 3195.35 1305.54 3203.92L2945.22 4278.89C2956.42 4286.27 2962.72 4295.24 2963.42 4304.82C2964.47 4317.98 2955.02 4330.35 2937.51 4338.92L1044.69 5270.49C1029.63 5277.87 1010.37 5281.66 990.417 5280.86C970.459 5280.07 952.252 5274.88 939.297 5266.31L-700.381 4191.34C-711.235 4183.96 -717.538 4174.98 -718.238 4165.41Z" fill="#DADADA"/>
<path d="M2985.13 4250.17C2984.43 4239.6 2977.08 4229.43 2964.47 4221.65L1338.1 3194.55C1323.74 3185.38 1303.79 3180.19 1282.43 3179.39C1261.07 3178.79 1240.41 3182.98 1224.31 3191.16L-584.136 4115.35C-601.993 4124.53 -611.797 4137.69 -610.747 4151.45C-610.047 4162.02 -602.694 4172.19 -590.089 4179.97L1036.28 5207.07C1050.64 5216.25 1070.6 5221.43 1091.96 5222.23C1113.31 5222.83 1133.97 5218.64 1150.08 5210.46L2958.52 4286.27C2976.38 4277.1 2986.18 4263.93 2985.13 4250.17ZM-603.044 4151.25C-604.094 4138.89 -595.341 4127.12 -578.884 4118.74L1229.56 3194.35C1243.91 3186.97 1262.47 3183.18 1282.08 3183.78C1301.34 3184.38 1319.19 3189.17 1332.15 3197.34L2958.52 4224.44C2969.73 4231.62 2976.38 4240.6 2977.08 4250.17C2978.13 4262.54 2969.38 4274.3 2952.92 4282.68L1144.48 5206.87C1130.12 5214.25 1111.56 5218.04 1091.96 5217.44C1072.7 5216.84 1054.84 5212.06 1041.89 5203.88L-584.487 4176.78C-595.691 4169.8 -602.344 4160.62 -603.044 4151.25Z" fill="#DADADA"/>
<path d="M2998.44 4195.73C2997.74 4185.16 2990.03 4174.98 2977.43 4167.21L1364.01 3187.97C1349.65 3179.19 1330.4 3174.21 1309.39 3173.81C1288.38 3173.41 1268.42 3177.6 1253.37 3185.78L-471.043 4102.59C-487.849 4111.56 -496.603 4124.13 -495.902 4137.09C-495.202 4147.66 -487.499 4157.83 -474.894 4165.61L1138.52 5144.85C1167.94 5162.8 1217.65 5163.6 1249.17 5146.84L2973.58 4230.23C2990.38 4221.25 2999.49 4208.69 2998.44 4195.73ZM-487.849 4136.89C-488.9 4125.12 -480.497 4113.96 -465.441 4105.98L1258.62 3189.17C1272.28 3181.79 1290.13 3178 1309.04 3178.4C1327.95 3178.79 1345.1 3183.18 1358.06 3190.96L2971.48 4170.2C2983.03 4177.18 2989.68 4186.15 2990.38 4195.73C2991.43 4207.49 2983.03 4218.66 2968.33 4226.64L1243.91 5143.45C1215.55 5158.61 1171.09 5157.61 1144.48 5141.66L-468.942 4162.42C-480.497 4155.44 -487.149 4146.46 -487.849 4136.89Z" fill="#DADADA"/>
<path d="M3011.74 4141.08C3011.04 4130.51 3003.34 4120.34 2990.03 4112.76L1389.57 3181.39C1360.16 3164.24 1311.84 3164.04 1281.73 3180.59L-358.3 4090.02C-373.706 4098.6 -382.109 4110.57 -381.059 4122.93C-380.358 4133.5 -372.655 4143.67 -359.35 4151.25L1241.11 5082.62C1270.52 5099.77 1318.84 5099.97 1348.95 5083.42L2988.98 4173.99C3004.39 4165.41 3012.79 4153.44 3011.74 4141.08ZM-372.655 4122.73C-373.356 4111.76 -366.003 4100.99 -351.998 4093.21L1287.68 3183.78C1314.64 3168.82 1357.71 3169.22 1384.32 3184.38L2984.78 4115.75C2996.34 4122.53 3003.34 4131.51 3004.04 4141.08C3004.74 4152.05 2997.39 4162.82 2983.38 4170.6L1343.35 5080.03C1316.39 5094.99 1273.33 5094.59 1247.07 5079.43L-353.398 4148.06C-365.302 4141.28 -371.955 4132.3 -372.655 4122.73Z" fill="#DADADA"/>
<path d="M3025.4 4086.63C3024.7 4075.86 3016.64 4065.89 3003.34 4058.51L1415.83 3174.81C1386.77 3158.65 1339.85 3158.85 1311.14 3175.4L-244.507 4077.46C-258.862 4085.84 -266.565 4097.2 -265.515 4108.77C-264.814 4119.54 -256.761 4129.51 -243.456 4136.89L1344.05 5020.4C1373.11 5036.55 1420.03 5036.35 1448.74 5019.8L3004.39 4117.75C3018.39 4109.57 3026.1 4098.2 3025.4 4086.63ZM-257.812 4108.57C-258.512 4098.2 -251.859 4088.03 -238.905 4080.65L1316.74 3178.6C1342.3 3163.84 1383.97 3163.64 1410.23 3178L2997.74 4061.7C3009.64 4068.48 3016.64 4077.26 3017.34 4086.83C3018.04 4097.2 3011.39 4107.37 2998.44 4114.75L1442.79 5016.81C1417.23 5031.57 1375.56 5031.77 1349.3 5017.41L-238.204 4133.9C-250.109 4126.92 -257.112 4117.95 -257.812 4108.57Z" fill="#DADADA"/>
<path d="M3038.7 4031.99C3038 4021.22 3029.95 4011.25 3015.94 4003.87L1441.74 3168.22C1427.73 3160.85 1409.53 3156.86 1390.27 3157.26C1371.01 3157.65 1353.16 3162.24 1340.2 3170.22L-131.413 4064.89C-144.718 4072.87 -151.72 4083.44 -150.67 4094.61C-149.97 4105.38 -141.917 4115.35 -127.911 4122.73L1446.64 4958.17C1475.7 4973.53 1521.22 4972.73 1548.18 4956.18L3019.45 4061.7C3032.75 4053.53 3039.75 4043.16 3038.7 4031.99ZM-142.617 4094.21C-143.317 4084.44 -137.365 4075.07 -125.46 4067.89L1346.15 3173.21C1357.71 3166.03 1373.46 3162.04 1390.62 3161.64C1407.78 3161.24 1423.88 3164.83 1436.49 3171.42L3010.69 4007.26C3022.95 4013.84 3030.3 4022.61 3031 4032.19C3031.7 4041.96 3025.75 4051.33 3013.84 4058.51L1542.23 4953.19C1518.07 4967.75 1477.8 4968.55 1451.89 4954.98L-122.659 4119.14C-134.914 4112.76 -141.917 4103.79 -142.617 4094.21Z" fill="#DADADA"/>
<path d="M3052.36 3977.54C3051.66 3966.77 3043.25 3956.8 3028.9 3949.62L1467.65 3161.64C1438.94 3147.08 1394.82 3148.68 1369.26 3165.03L-17.9695 4052.33C-30.2241 4060.11 -36.1763 4070.08 -35.4761 4080.45C-34.7759 4091.22 -26.3726 4101.19 -12.0171 4108.37L1549.23 4896.15C1577.94 4910.71 1622.06 4909.11 1647.62 4892.76L3034.85 4005.46C3047.11 3997.88 3053.06 3987.91 3052.36 3977.54ZM-27.7732 4080.05C-28.4734 4070.88 -22.8713 4062.1 -12.3674 4055.12L1375.21 3168.02C1397.97 3153.47 1436.84 3152.27 1462.4 3165.03L3023.65 3953.01C3036.25 3959.39 3043.6 3968.17 3044.3 3977.74C3045 3986.91 3039.4 3995.69 3028.9 4002.67L1641.67 4889.97C1618.91 4904.53 1580.04 4905.72 1554.48 4892.96L-6.76514 4104.98C-19.72 4098.4 -27.0728 4089.62 -27.7732 4080.05Z" fill="#DADADA"/>
<path d="M3066.01 3922.9C3065.31 3912.13 3056.56 3901.95 3041.85 3895.17L1493.56 3155.06C1479.55 3148.48 1462.05 3145.29 1444.19 3146.09C1426.33 3146.88 1409.88 3151.87 1398.32 3159.65L95.124 4039.37C84.2698 4046.75 78.6677 4056.12 79.3679 4065.89C80.0681 4076.66 88.8218 4086.83 103.527 4093.61L1651.82 4833.93C1680.53 4847.49 1723.25 4845.49 1747.06 4829.34L3050.26 3949.42C3061.11 3942.04 3066.71 3932.67 3066.01 3922.9ZM87.4209 4065.89C86.7207 4057.32 91.6226 4049.14 101.426 4042.56L1404.28 3162.64C1414.43 3155.66 1429.14 3151.47 1444.89 3150.67C1460.65 3149.88 1476.4 3152.67 1488.66 3158.45L3036.95 3898.56C3049.56 3904.75 3057.61 3913.52 3058.31 3923.09C3059.01 3931.67 3054.11 3939.85 3044.3 3946.43L1741.1 4826.15C1719.75 4840.51 1681.93 4842.3 1656.72 4830.34L108.429 4090.22C95.8242 4084.24 88.1213 4075.27 87.4209 4065.89Z" fill="#DADADA"/>
<path d="M3079.67 3868.45C3078.97 3857.68 3069.86 3847.51 3054.81 3840.73L1519.47 3148.48C1505.81 3142.3 1488.66 3139.51 1471.15 3140.7C1453.64 3141.9 1438.24 3146.69 1427.03 3154.66L208.217 4027C198.413 4033.98 193.511 4042.76 193.862 4051.73C194.562 4062.5 203.665 4072.67 218.721 4079.45L1754.41 4771.7C1782.77 4784.46 1824.09 4781.87 1846.85 4765.72L3065.66 3893.18C3075.47 3886.2 3080.37 3877.42 3079.67 3868.45ZM202.265 4051.53C201.565 4043.55 206.116 4035.98 214.87 4029.79L1433.34 3157.45C1442.79 3150.67 1456.8 3146.29 1471.85 3145.29C1487.26 3144.29 1502.31 3146.69 1514.22 3152.27L3049.91 3844.32C3062.86 3850.3 3070.91 3859.08 3071.61 3868.65C3072.32 3876.43 3067.76 3884.2 3059.01 3890.39L1840.19 4762.73C1820.24 4776.89 1783.82 4779.28 1758.96 4768.11L223.623 4075.86C211.018 4069.88 202.965 4061.11 202.265 4051.53Z" fill="#DADADA"/>
<path d="M3093.32 3813.8C3092.62 3802.83 3083.17 3792.86 3067.76 3786.28L1545.38 3141.9C1517.02 3129.93 1477.1 3133.32 1456.1 3149.28L321.661 4014.24C312.907 4020.82 308.356 4029.2 309.056 4037.37C309.756 4048.34 319.21 4058.31 334.616 4064.89L1857 4709.48C1885.36 4721.44 1925.28 4718.05 1946.28 4702.1L3080.72 3837.14C3089.47 3830.36 3094.02 3822.18 3093.32 3813.8ZM317.109 4037.37C316.409 4030.19 320.611 4022.81 327.963 4017.03L1462.4 3152.07C1480.96 3138.11 1515.97 3135.12 1540.48 3145.49L3062.86 3789.87C3076.52 3795.65 3084.57 3804.43 3085.27 3814C3085.97 3821.18 3081.77 3828.56 3074.42 3834.35L1939.98 4699.31C1921.42 4713.27 1886.41 4716.26 1861.9 4705.89L339.518 4061.5C325.863 4055.72 317.81 4046.95 317.109 4037.37Z" fill="#DADADA"/>
<path d="M3107.33 3759.36C3106.63 3748.39 3096.82 3738.42 3080.72 3732.03L1571.29 3135.52C1543.28 3124.55 1504.76 3128.34 1485.16 3144.29L434.754 4001.87C427.051 4008.25 423.2 4015.63 423.9 4023.41C424.6 4034.38 434.404 4044.35 450.51 4050.73L1959.59 4647.25C1987.6 4658.22 2026.11 4654.43 2045.72 4638.48L3096.12 3780.9C3103.83 3774.51 3107.68 3766.94 3107.33 3759.36ZM431.953 4023.21C431.603 4016.43 434.754 4010.05 441.407 4004.47L1491.81 3146.88C1508.97 3132.92 1542.58 3129.53 1566.74 3139.31L3076.17 3735.62C3090.17 3741.21 3098.58 3749.78 3099.28 3759.56C3099.63 3766.34 3096.47 3772.72 3089.82 3778.3L2039.42 4635.88C2022.26 4649.84 1988.65 4653.24 1964.14 4643.46L454.712 4046.95C441.056 4041.56 432.653 4032.79 431.953 4023.21Z" fill="#DADADA"/>
<path d="M3120.98 3704.71C3120.28 3693.74 3109.78 3683.57 3093.67 3677.59L1597.2 3128.93C1569.54 3118.76 1532.07 3123.35 1514.22 3139.11L548.198 3989.31C541.545 3995.29 538.043 4002.27 538.744 4009.25C539.444 4020.22 549.948 4030.39 566.054 4036.38L2062.18 4585.03C2089.84 4595.2 2127.3 4590.61 2145.16 4574.86L3111.53 3724.65C3118.18 3718.67 3121.68 3711.69 3120.98 3704.71ZM546.447 4009.05C546.097 4002.87 548.898 3996.89 554.85 3991.7L1520.87 3141.5C1536.63 3127.74 1568.84 3123.75 1593 3132.72L3089.12 3681.38C3103.13 3686.56 3112.23 3695.34 3112.93 3704.91C3113.28 3711.09 3110.48 3717.08 3104.53 3722.26L2138.51 4572.46C2122.75 4586.22 2090.54 4590.21 2066.38 4581.24L570.256 4032.59C556.25 4027.4 547.147 4018.63 546.447 4009.05Z" fill="#DADADA"/>
<path d="M3134.99 3650.06C3134.29 3638.9 3123.43 3628.73 3106.63 3622.94L1623.11 3122.35C1595.45 3112.98 1559.74 3118.17 1543.28 3133.92L661.291 3976.74C655.339 3982.33 652.538 3988.71 653.238 3995.09C653.938 4006.26 664.792 4016.43 681.599 4022.21L2165.12 4522.8C2192.78 4532.18 2228.49 4526.99 2244.95 4511.24L3126.59 3668.41C3132.54 3662.83 3135.34 3656.65 3134.99 3650.06ZM661.291 3994.69C660.941 3989.11 663.392 3983.72 668.294 3978.94L1549.93 3136.11C1564.29 3122.55 1595.1 3118.17 1618.91 3126.14L3102.43 3626.93C3117.13 3631.92 3126.24 3640.69 3126.94 3650.26C3127.29 3655.85 3124.84 3661.23 3119.93 3666.02L2237.95 4508.84C2223.59 4522.4 2192.78 4526.79 2168.97 4518.81L685.8 4018.03C671.095 4013.24 661.991 4004.47 661.291 3994.69Z" fill="#DADADA"/>
<path d="M3148.99 3595.62C3148.29 3584.45 3136.74 3574.08 3119.23 3568.69L1649.02 3115.77C1621.71 3107.4 1587.05 3113.18 1572.34 3128.74L774.734 3963.98C769.833 3969.16 767.381 3974.95 768.082 3980.73C768.782 3991.9 780.336 4002.27 797.843 4007.66L2267.71 4460.58C2295.02 4468.95 2329.68 4463.17 2344.39 4447.62L3141.99 3612.37C3146.89 3607.19 3149.34 3601.4 3148.99 3595.62ZM775.785 3980.53C775.435 3975.55 777.535 3970.56 781.737 3966.17L1579.34 3130.93C1592.3 3117.57 1621.71 3112.58 1645.52 3119.76L3115.38 3572.68C3130.44 3577.27 3140.24 3586.05 3140.94 3595.82C3141.29 3600.8 3139.19 3605.79 3134.99 3610.18L2337.38 4445.42C2324.43 4458.78 2295.02 4463.77 2271.21 4456.59L800.994 4003.67C785.939 3999.08 776.485 3990.31 775.785 3980.53Z" fill="#DADADA"/>
<path d="M3163 3540.97C3161.95 3529.61 3150.4 3519.23 3132.19 3514.25L1674.93 3109.19C1647.62 3101.61 1614.71 3107.99 1601.4 3123.55L888.178 3951.42C883.976 3956.2 882.226 3961.39 882.576 3966.57C883.626 3978.14 895.181 3988.31 913.388 3993.3L2370.3 4398.35C2397.61 4405.93 2430.52 4399.55 2443.82 4383.99L3157.4 3556.13C3161.6 3551.34 3163.35 3546.16 3163 3540.97ZM890.279 3966.37C889.929 3961.99 891.679 3957.4 895.181 3953.41L1608.4 3125.54C1619.96 3112.38 1647.97 3106.8 1671.43 3113.18L3128.69 3518.24C3144.09 3522.62 3154.25 3531.4 3154.95 3541.17C3155.3 3545.56 3153.55 3550.15 3150.04 3554.14L2436.82 4382C2425.27 4395.16 2397.26 4400.75 2373.8 4394.37L916.539 3989.31C901.133 3984.92 890.979 3976.15 890.279 3966.37Z" fill="#DADADA"/>
</g>
</g>
</g>
</g>
<defs>
<linearGradient id="paint0_linear_675_514" x1="960" y1="0" x2="960" y2="8307" gradientUnits="userSpaceOnUse">
<stop stop-color="#FBFEFF"/>
<stop offset="0.0001" stop-color="#4574EF"/>
<stop offset="1" stop-color="#041133"/>
</linearGradient>
<clipPath id="clip0_675_514">
<rect width="1920" height="8307" fill="white"/>
</clipPath>
<clipPath id="clip1_675_514">
<rect width="1883" height="1690" fill="white" transform="translate(-376 1106)"/>
</clipPath>
<clipPath id="clip2_675_514">
<rect width="1834.13" height="1646.14" fill="white" transform="translate(2485.4 773.651) rotate(159.377)"/>
</clipPath>
<clipPath id="clip3_675_514">
<rect width="4696" height="2623" fill="white" transform="matrix(-1 0 0 1 3163 3106)"/>
</clipPath>
</defs>
</svg>
