<svg width="70" height="38" viewBox="0 0 70 38" fill="none" xmlns="http://www.w3.org/2000/svg">
<rect width="70" height="38" rx="10" fill="#954CDB" fill-opacity="0.3"/>
<path d="M34.6854 25.5542C34.4299 25.5542 34.1826 25.5062 33.9437 25.4104C33.7034 25.3146 33.5035 25.1868 33.3437 25.0271L24.5271 16.2104C24.1757 15.859 24 15.4118 24 14.8687C24 14.3257 24.1757 13.8785 24.5271 13.5271C24.8785 13.1757 25.3257 13 25.8687 13C26.4118 13 26.859 13.1757 27.2104 13.5271L34.6854 21.0021L42.1604 13.5271C42.5118 13.1757 42.959 13 43.5021 13C44.0451 13 44.4924 13.1757 44.8437 13.5271C45.1951 13.8785 45.3708 14.3257 45.3708 14.8687C45.3708 15.4118 45.1951 15.859 44.8437 16.2104L36.0271 25.0271C35.8354 25.2187 35.6278 25.3542 35.4042 25.4334C35.1806 25.5139 34.941 25.5542 34.6854 25.5542V25.5542Z" fill="#954CDB"/>
</svg>
