<svg width="140" height="295" viewBox="0 0 140 295" fill="none" xmlns="http://www.w3.org/2000/svg">
<path d="M33 295L0 148.464L33 8.46386e-06H140L140 295H33Z" fill="url(#paint0_linear_25_7)"/>
<path d="M101.1 250.82C101.1 254.06 100.74 257.88 100.02 262.28H95.7C96.66 257.64 97.14 253.76 97.14 250.64C97.14 248.2 96.8 246.42 96.12 245.3C95.4 244.14 94.24 243.56 92.64 243.56H84.9C83.22 243.56 82.14 244.28 81.66 245.72C81.46 246.4 81.34 247.04 81.3 247.64C81.22 248.2 81.18 248.94 81.18 249.86V261.38H61.56V238.94H65.64V255.98H77.46V246.98C77.46 245.38 77.66 243.96 78.06 242.72C78.42 241.48 79.06 240.38 79.98 239.42C80.98 238.42 82.28 237.92 83.88 237.92H92.76C94.16 237.92 95.4 238.18 96.48 238.7C97.52 239.18 98.34 239.84 98.94 240.68C99.5 241.44 99.96 242.42 100.32 243.62C100.68 244.78 100.9 245.94 100.98 247.1C101.06 248.54 101.1 249.78 101.1 250.82ZM101.1 215.355C101.1 217.115 101.04 218.555 100.92 219.675C100.8 220.755 100.56 221.915 100.2 223.155C99.84 224.475 99.32 225.535 98.64 226.335C97.92 227.095 96.92 227.735 95.64 228.255C94.44 228.775 92.94 229.035 91.14 229.035H71.46C69.66 229.035 68.08 228.775 66.72 228.255C65.36 227.735 64.28 227.055 63.48 226.215C62.8 225.455 62.26 224.455 61.86 223.215C61.42 221.935 61.14 220.655 61.02 219.375C60.94 217.935 60.9 216.595 60.9 215.355C60.9 213.595 60.96 212.175 61.08 211.095C61.2 209.975 61.44 208.795 61.8 207.555C62.2 206.235 62.76 205.175 63.48 204.375C64.2 203.535 65.22 202.855 66.54 202.335C67.86 201.815 69.48 201.555 71.4 201.555H91.14C92.78 201.555 94.24 201.815 95.52 202.335C96.8 202.855 97.8 203.535 98.52 204.375C99.2 205.175 99.76 206.195 100.2 207.435C100.6 208.675 100.84 209.935 100.92 211.215C101.04 212.335 101.1 213.715 101.1 215.355ZM97.56 215.235C97.56 213.115 97.42 211.475 97.14 210.315C96.82 209.155 96.22 208.315 95.34 207.795C94.46 207.275 93.16 207.015 91.44 207.015H71.04C69.16 207.015 67.76 207.295 66.84 207.855C65.88 208.375 65.24 209.215 64.92 210.375C64.6 211.495 64.44 213.135 64.44 215.295C64.44 217.495 64.6 219.175 64.92 220.335C65.24 221.455 65.88 222.275 66.84 222.795C67.76 223.315 69.16 223.575 71.04 223.575H91.44C93.16 223.575 94.46 223.315 95.34 222.795C96.22 222.235 96.82 221.375 97.14 220.215C97.42 219.055 97.56 217.395 97.56 215.235ZM101.1 168.223C101.1 171.262 100.78 175.082 100.14 179.682H95.4C95.4 179.522 95.54 178.802 95.82 177.522C96.06 176.362 96.24 175.402 96.36 174.642C96.44 173.842 96.52 172.922 96.6 171.882C96.72 170.642 96.78 169.422 96.78 168.223H83.1V169.962C83.1 173.762 82.34 176.462 80.82 178.062C79.3 179.662 76.94 180.462 73.74 180.462H71.22C68.34 180.462 66.18 179.542 64.74 177.702C63.3 175.862 62.46 172.702 62.22 168.223H57.96V164.802H62.16C62.16 162.322 62.38 159.102 62.82 155.142H67.08C66.56 160.062 66.26 163.282 66.18 164.802H78.78V163.002C78.78 160.322 79.1 158.242 79.74 156.762C80.38 155.242 81.36 154.182 82.68 153.582C83.96 152.942 85.7 152.622 87.9 152.622H90.12C93.76 152.622 96.42 153.602 98.1 155.562C99.78 157.522 100.74 160.602 100.98 164.802H108.9V168.223H101.1ZM66.24 168.223C66.4 170.782 66.84 172.522 67.56 173.442C68.28 174.362 69.44 174.822 71.04 174.822H74.88C76.24 174.822 77.24 174.322 77.88 173.322C78.48 172.322 78.78 170.622 78.78 168.223H66.24ZM96.66 164.802C96.54 162.642 96.14 161.022 95.46 159.942C94.74 158.862 93.62 158.322 92.1 158.322H87.66C85.98 158.322 84.8 158.802 84.12 159.762C83.44 160.722 83.1 162.402 83.1 164.802H96.66ZM101.1 115.15C101.1 126.03 97.58 131.47 90.54 131.47H72.12C64.68 131.47 60.96 126.03 60.96 115.15C60.96 104.15 64.66 98.6497 72.06 98.6497H90.54C94.3 98.6497 97 100.17 98.64 103.21C100.28 106.25 101.1 110.23 101.1 115.15ZM97.2 115.03C97.2 107.87 94.96 104.29 90.48 104.29H71.94C67.14 104.29 64.74 107.89 64.74 115.09C64.74 118.57 65.28 121.25 66.36 123.13C67.44 124.97 69.3 125.89 71.94 125.89H90.48C94.96 125.89 97.2 122.27 97.2 115.03ZM61.56 89.667V62.907H65.64V83.847H78.36V64.887H82.44V83.847H100.5V89.667H61.56ZM61.56 56.0928V29.3328H65.64V50.2728H78.36V31.3128H82.44V50.2728H100.5V56.0928H61.56Z" fill="white"/>
<defs>
<linearGradient id="paint0_linear_25_7" x1="0" y1="147.5" x2="140" y2="147.5" gradientUnits="userSpaceOnUse">
<stop stop-color="#33FF99"/>
<stop offset="1" stop-color="#1D976C"/>
</linearGradient>
</defs>
</svg>
