<svg width="70" height="38" viewBox="0 0 70 38" fill="none" xmlns="http://www.w3.org/2000/svg">
<rect x="0.5" y="0.5" width="69" height="37" rx="9.5" fill="white" stroke="#954CDB"/>
<path d="M34.6854 13C34.941 13 35.1882 13.0479 35.4272 13.1438C35.6674 13.2396 35.8674 13.3674 36.0271 13.5271L44.8438 22.3438C45.1952 22.6951 45.3708 23.1424 45.3708 23.6854C45.3708 24.2285 45.1952 24.6757 44.8438 25.0271C44.4924 25.3785 44.0452 25.5542 43.5021 25.5542C42.959 25.5542 42.5118 25.3785 42.1604 25.0271L34.6854 17.5521L27.2104 25.0271C26.859 25.3785 26.4118 25.5542 25.8688 25.5542C25.3257 25.5542 24.8785 25.3785 24.5271 25.0271C24.1757 24.6757 24 24.2285 24 23.6854C24 23.1424 24.1757 22.6951 24.5271 22.3438L33.3438 13.5271C33.5354 13.3354 33.7431 13.2 33.9667 13.1208C34.1903 13.0403 34.4299 13 34.6854 13V13Z" fill="#954CDB"/>
</svg>
